<svg id="_000000ff" data-name="#000000ff" xmlns="http://www.w3.org/2000/svg" width="15.858" height="17.429" viewBox="0 0 15.858 17.429">
  <path id="Path_21966" data-name="Path 21966" d="M117.3,78.618a.677.677,0,0,1,.67.014c.753.4,1.508.793,2.26,1.193q-3.854,1.951-7.709,3.9c-.833-.427-1.671-.846-2.505-1.27Q113.663,80.541,117.3,78.618Z" transform="translate(-109.694 -78.536)" fill="#303779"/>
  <path id="Path_21968" data-name="Path 21968" d="M207.62,132.705l7.657-3.875c.894.471,1.794.933,2.681,1.417l-7.407,3.747a.393.393,0,0,1-.387,0Z" transform="translate(-202.428 -126.323)" fill="#303779"/>
  <path id="Path_21969" data-name="Path 21969" d="M103.474,175.936q0-4.278,0-8.556,1.257.628,2.508,1.269c0,1.281,0,2.563,0,3.844a.337.337,0,0,0,.309.375c.281,0,.622-.236.849.024.217.217.42.447.639.662a.327.327,0,0,0,.464,0,.4.4,0,0,0,.1-.306c0-1.135,0-2.27,0-3.4.922.46,1.834.941,2.762,1.388q0,4.574,0,9.148-3.639-1.908-7.271-3.828A.67.67,0,0,1,103.474,175.936Z" transform="translate(-103.474 -162.951)" fill="#303779"/>
  <path id="Path_21970" data-name="Path 21970" d="M271.544,169.724l4.611-2.334q.007,4.278,0,8.557a.683.683,0,0,1-.392.631q-3.618,1.908-7.237,3.812,0-4.576,0-9.151C269.541,170.751,270.537,170.227,271.544,169.724Z" transform="translate(-260.299 -162.96)" fill="#303779"/>
</svg>
