<svg xmlns="http://www.w3.org/2000/svg" width="14.558" height="16" viewBox="0 0 14.558 16">
  <g id="Back_order" data-name="Back order" transform="translate(-103.474 -78.536)">
    <path id="Path_21966" data-name="Path 21966" d="M116.632,78.611a.614.614,0,0,1,.608.013c.684.361,1.369.72,2.051,1.083q-3.5,1.771-7,3.541c-.756-.388-1.516-.768-2.274-1.153Q113.327,80.356,116.632,78.611Z" transform="translate(-6.25 0)" fill="#fff"/>
    <path id="Path_21968" data-name="Path 21968" d="M207.62,132.348l6.951-3.518c.812.427,1.628.847,2.434,1.287l-6.723,3.4a.357.357,0,0,1-.351,0Z" transform="translate(-99.271 -48.018)" fill="#fff"/>
    <path id="Path_21969" data-name="Path 21969" d="M103.474,175.147q0-3.883,0-7.767,1.141.57,2.277,1.152c0,1.163,0,2.327,0,3.49a.306.306,0,0,0,.281.34c.255,0,.564-.214.771.022.2.2.381.406.58.6a.3.3,0,0,0,.421,0,.361.361,0,0,0,.087-.278c0-1.03,0-2.06,0-3.09.837.417,1.664.854,2.508,1.26q0,4.152,0,8.3-3.3-1.732-6.6-3.475A.608.608,0,0,1,103.474,175.147Z" transform="translate(0 -84.645)" fill="#fff"/>
    <path id="Path_21970" data-name="Path 21970" d="M271.265,169.508l4.186-2.118q.006,3.883,0,7.767a.62.62,0,0,1-.356.573q-3.284,1.732-6.569,3.46,0-4.154,0-8.306C269.448,170.441,270.352,169.965,271.265,169.508Z" transform="translate(-157.422 -84.654)" fill="#fff"/>
  </g>
</svg>
