<svg xmlns="http://www.w3.org/2000/svg" width="29.25" height="28.8" viewBox="0 0 29.25 28.8">
  <path id="Icon_ionic-md-cart" data-name="Icon ionic-md-cart" d="M11.925,26.55a2.925,2.925,0,1,0,2.925,2.925A2.933,2.933,0,0,0,11.925,26.55ZM3.375,3.6V6.525H6.3L11.565,17.19l-2.2,3.583A2.8,2.8,0,0,0,9,22.163c0,1.958,1.338,2.925,3.152,2.925h17.1V22.275H12.508a.346.346,0,0,1-.366-.366,1.824,1.824,0,0,1,.155-.366l1.461-2.306h10.9A2.869,2.869,0,0,0,27.213,17.7l5.265-9.056a1.71,1.71,0,0,0,.146-.731,1.406,1.406,0,0,0-1.462-1.39H9.518L8.128,3.6Zm22.95,22.95a2.925,2.925,0,1,0,2.925,2.925A2.933,2.933,0,0,0,26.325,26.55Z" transform="translate(-3.375 -3.6)" fill="#303779"/>
</svg>
