<svg xmlns="http://www.w3.org/2000/svg" width="10.697" height="13.756" viewBox="0 0 10.697 13.756">
  <g id="_000000ff" data-name="#000000ff" transform="translate(-57.123)">
    <path id="Path_21652" data-name="Path 21652" d="M183.156,0H185.6a.786.786,0,0,1,.68.437,1.857,1.857,0,0,1,.081.78h-.83c0-.129,0-.258,0-.386h-2.3c0,.129,0,.258,0,.386h-.83a1.787,1.787,0,0,1,.087-.794A.789.789,0,0,1,183.156,0Z" transform="translate(-121.913)" fill="#a5a5a5"/>
    <path id="Path_21653" data-name="Path 21653" d="M57.907,76.2c3.016-.006,6.032,0,9.047,0a.6.6,0,0,1,.421.135.787.787,0,0,1,.209.387c.073.227.156.451.222.679a.344.344,0,0,1-.34.427q-4.986,0-9.972,0a.352.352,0,0,1-.357-.241.489.489,0,0,1,.034-.317c.084-.241.157-.486.246-.725A.534.534,0,0,1,57.907,76.2Z" transform="translate(0 -74.15)" fill="#a5a5a5"/>
    <path id="Path_21654" data-name="Path 21654" d="M97.472,168.134a.37.37,0,0,1,.386-.409H105.6a.384.384,0,0,1,.31.127.394.394,0,0,1,.085.309q-.318,3.936-.636,7.872a1.088,1.088,0,0,1-.131.512.877.877,0,0,1-.727.428H98.98a.879.879,0,0,1-.688-.35.93.93,0,0,1-.176-.512q-.322-3.989-.645-7.977m1.713.55a.415.415,0,0,0-.289.267.828.828,0,0,0-.013.314q.2,3.223.4,6.446a.421.421,0,0,0,.232.36.417.417,0,0,0,.479-.083.435.435,0,0,0,.116-.358q-.2-3.28-.405-6.56a.418.418,0,0,0-.518-.387m2.471-.005a.418.418,0,0,0-.334.422q0,3.225,0,6.45a.711.711,0,0,0,.044.331.415.415,0,0,0,.787-.2q0-3.305,0-6.61a.416.416,0,0,0-.494-.4m2.444,0a.419.419,0,0,0-.34.4q-.194,3.288-.387,6.577a.415.415,0,1,0,.828.055q.2-3.305.388-6.611A.416.416,0,0,0,104.1,168.679Z" transform="translate(-39.262 -163.219)" fill="#a5a5a5"/>
  </g>
</svg>
