<svg xmlns="http://www.w3.org/2000/svg" width="18.004" height="16" viewBox="0 0 18.004 16">
  <path id="Icon_awesome-edit" data-name="Icon awesome-edit" d="M12.584,2.6,15.4,5.424a.306.306,0,0,1,0,.431L8.577,12.681,5.676,13A.608.608,0,0,1,5,12.331l.322-2.9L12.152,2.6A.306.306,0,0,1,12.584,2.6Zm5.063-.716L16.122.363a1.222,1.222,0,0,0-1.725,0L13.29,1.47a.306.306,0,0,0,0,.431L16.109,4.72a.306.306,0,0,0,.431,0l1.106-1.106a1.222,1.222,0,0,0,0-1.725ZM12,10.825v3.182H2V4H9.183A.384.384,0,0,0,9.449,3.9l1.25-1.25A.375.375,0,0,0,10.433,2H1.5A1.5,1.5,0,0,0,0,3.5v11a1.5,1.5,0,0,0,1.5,1.5h11a1.5,1.5,0,0,0,1.5-1.5V9.575a.376.376,0,0,0-.641-.266l-1.25,1.25A.384.384,0,0,0,12,10.825Z" transform="translate(0 -0.007)" fill="#303779"/>
</svg>
