<svg xmlns="http://www.w3.org/2000/svg" width="15.579" height="13.356" viewBox="0 0 15.579 13.356">
  <g id="Icon_ionic-ios-eye-off" data-name="Icon ionic-ios-eye-off" transform="translate(-2.252 -4.499)">
    <path id="Path_22029" data-name="Path 22029" d="M5.348,4.642a.494.494,0,0,0-.7.7L17.013,17.713a.49.49,0,0,0,.476.125.482.482,0,0,0,.223-.129.493.493,0,0,0,0-.7Z" transform="translate(-1.139)" fill="#a5a5a5"/>
    <g id="Group_17050" data-name="Group 17050" transform="translate(2.252 6.169)">
      <path id="Path_22030" data-name="Path 22030" d="M10.188,17.858a3.127,3.127,0,0,1-2.974-4.466L5.357,11.531A24.4,24.4,0,0,0,2.4,14.359a.55.55,0,0,0,0,.741c2.257,2.494,4.247,4.64,7.641,4.64a6.7,6.7,0,0,0,2.862-.668l-1.513-1.513A3.16,3.16,0,0,1,10.188,17.858Z" transform="translate(-2.252 -9.723)" fill="#a5a5a5"/>
      <path id="Path_22031" data-name="Path 22031" d="M22.724,13.231a.546.546,0,0,0,.017-.72C20.922,10.3,18.4,7.875,15.072,7.875a6.511,6.511,0,0,0-2.852.661l1.52,1.52a3.065,3.065,0,0,1,1.193-.3,3.127,3.127,0,0,1,2.974,4.466l1.861,1.861A23.006,23.006,0,0,0,22.724,13.231Z" transform="translate(-7.289 -7.875)" fill="#a5a5a5"/>
      <path id="Path_22032" data-name="Path 22032" d="M13.508,17.51a2.235,2.235,0,0,0,2.049,2.049,2.174,2.174,0,0,0,.814-.09l-2.775-2.775A2.275,2.275,0,0,0,13.508,17.51Z" transform="translate(-7.937 -12.331)" fill="#a5a5a5"/>
      <path id="Path_22033" data-name="Path 22033" d="M21.74,17.861c0-.045,0-.09,0-.136a1.542,1.542,0,0,1-.633.136c-.038,0-.073,0-.108,0l.647.65A2.224,2.224,0,0,0,21.74,17.861Z" transform="translate(-11.724 -12.853)" fill="#a5a5a5"/>
      <path id="Path_22034" data-name="Path 22034" d="M17.343,14.091a1.634,1.634,0,0,1,.108-.588c-.035,0-.07,0-.108,0a2.2,2.2,0,0,0-.643.1l.65.65C17.346,14.2,17.343,14.143,17.343,14.091Z" transform="translate(-9.553 -10.718)" fill="#a5a5a5"/>
    </g>
  </g>
</svg>
