<svg xmlns="http://www.w3.org/2000/svg" width="15.557" height="10" viewBox="0 0 15.557 10">
  <g id="Icon_ionic-ios-eye" data-name="Icon ionic-ios-eye" transform="translate(-2.252 -7.875)">
    <path id="Path_21994" data-name="Path 21994" d="M10.022,7.875C7.23,7.875,5.029,9.632,2.4,12.5a.549.549,0,0,0,0,.74c2.253,2.49,4.24,4.632,7.628,4.632,3.347,0,5.858-2.7,7.642-4.653a.545.545,0,0,0,.017-.719C15.862,10.3,13.345,7.875,10.022,7.875ZM10.174,16a3.125,3.125,0,1,1,2.976-2.976A3.126,3.126,0,0,1,10.174,16Z" fill="#a5a5a5"/>
    <path id="Path_21995" data-name="Path 21995" d="M15.682,14.08a1.6,1.6,0,0,1,.106-.576c-.034,0-.068,0-.106,0a2.182,2.182,0,1,0,2.182,2.182c0-.044,0-.089,0-.133a1.512,1.512,0,0,1-.62.133A1.583,1.583,0,0,1,15.682,14.08Z" transform="translate(-5.654 -2.807)" fill="#a5a5a5"/>
  </g>
</svg>
