<svg xmlns="http://www.w3.org/2000/svg" width="632.832" height="454" viewBox="0 0 632.832 454">
  <g id="Group_16850" data-name="Group 16850" transform="translate(-680 -179.604)">
    <path id="Path_10340" data-name="Path 10340" d="M220.512,99.055C333.75,272.914,506,107.834,506,229.488S323.995,481.544,202.209,481.544,0,351.142,0,229.488,107.275-74.8,220.512,99.055Z" transform="translate(806.832 152.059)" fill="#e6edff"/>
    <g id="Group_16820" data-name="Group 16820" transform="translate(-23 21.868)">
      <g id="Group_16819" data-name="Group 16819" transform="translate(703 254.434)">
        <path id="Path_10266" data-name="Path 10266" d="M205.389,639.7c-12.24,10.437-14.781,27.556-14.781,27.556s17.3.2,29.545-10.241,14.781-27.556,14.781-27.556S217.629,629.259,205.389,639.7Z" transform="translate(-174.018 -388.715)" fill="#54c885"/>
        <path id="Path_10267" data-name="Path 10267" d="M209.452,635.208c-5.214,15.218-20.2,23.866-20.2,23.866s-6.537-16.024-1.323-31.242,20.2-23.866,20.2-23.866S214.665,619.991,209.452,635.208Z" transform="translate(-172.424 -380.075)" fill="#54c885"/>
        <path id="Path_10268" data-name="Path 10268" d="M384.136,295.111c-2.77-3.589-6.684-6.909-6.932-11.337-.227-4.062,2.8-8.094,1.524-11.98-.982-2.988-4.222-4.79-7.388-5.745a28.714,28.714,0,0,0-18.453.71l.321-.226c-3.6-1.284-7.817.042-10.652,2.5s-4.521,5.857-5.828,9.267-2.321,6.944-4.138,10.141-4.6,6.1-8.269,7.208a5.193,5.193,0,0,0,7.323,1.6,9.266,9.266,0,0,0,1.541-1.593l4.508-5.481c1.546,2.75-.764,6.545,1.137,9.09.98,1.313,2.77,1.811,4.432,2.169a80.166,80.166,0,0,0,39.219-1.455,3.827,3.827,0,0,0,2.581-1.645C385.551,297.262,384.864,296.055,384.136,295.111Z" transform="translate(-219.428 -264.858)" fill="#2f2e41"/>
        <path id="Path_10269" data-name="Path 10269" d="M448.582,329.066a6.953,6.953,0,0,0-.158,1.084l-28.4,16.381-6.9-3.973-7.358,9.633,11.535,8.221a5.288,5.288,0,0,0,6.345-.155l29.281-23.1a6.939,6.939,0,1,0-4.347-8.092Z" transform="translate(-247.08 -284.809)" fill="#ffb7b7"/>
        <path id="Path_10270" data-name="Path 10270" d="M411.925,352.518l-9.177,11.894a2.975,2.975,0,0,1-4.5.246L387.861,353.87a8.261,8.261,0,1,1,10.131-13.051l13.031,7.286a2.975,2.975,0,0,1,.9,4.413Z" transform="translate(-239.909 -290.071)" fill="#3a63f3"/>
        <path id="Path_10271" data-name="Path 10271" d="M241.287,444.237h8.1l3.855-31.258h-11.96Z" transform="translate(-81.908 -174.758)" fill="#ffb7b7"/>
        <path id="Path_10272" data-name="Path 10272" d="M403.67,668.929h15.96A10.171,10.171,0,0,1,429.8,679.1v.331H403.67Z" transform="translate(-246.36 -402.095)" fill="#1f255e"/>
        <path id="Path_10273" data-name="Path 10273" d="M157.287,444.237h8.1l3.855-31.258h-11.96Z" transform="translate(-53.393 -174.758)" fill="#ffb7b7"/>
        <path id="Path_10274" data-name="Path 10274" d="M319.67,668.929h15.96A10.171,10.171,0,0,1,345.8,679.1v.331h-26.13Z" transform="translate(-217.844 -402.095)" fill="#1f255e"/>
        <circle id="Ellipse_442" data-name="Ellipse 442" cx="14.005" cy="14.005" r="14.005" transform="translate(125.163 36.699) rotate(-83.735)" fill="#ffb7b7"/>
        <path id="Path_10275" data-name="Path 10275" d="M365.493,333.391l8.251,4.088s9.219,16.021,3.931,31.224c-2.567,7.382,4.662,30.911,4.662,30.911s11.2,106.58,11.237,139.474c-13.917,2.14-27.137,4.784-27.8-1.826s-7.9-84.767-7.9-84.767-9.951,86.75-17.883,88.072-23.8-.661-23.8-.661,12.595-127.072,21.188-135l1.322-6.61-.035-59.335,9.9-4.725Z" transform="translate(-216.674 -288.354)" fill="#1f255e"/>
        <path id="Path_10276" data-name="Path 10276" d="M340.693,431.081a7.1,7.1,0,0,0,2.176-10.669l9.6-63.961-12.537-.6-7.48,63.7a7.14,7.14,0,0,0,8.245,11.536Z" transform="translate(-221.389 -295.781)" fill="#ffb7b7"/>
        <path id="Path_10277" data-name="Path 10277" d="M354.4,367.209l-14.993-.947a2.974,2.974,0,0,1-2.722-3.589l3.124-14.648a8.261,8.261,0,1,1,16.486,1.089l1.257,14.876a2.975,2.975,0,0,1-3.151,3.218Z" transform="translate(-223.596 -290.487)" fill="#3a63f3"/>
        <path id="Path_10278" data-name="Path 10278" d="M815.684,289.249H484.122A9.126,9.126,0,0,0,475,298.375v184.74a9.126,9.126,0,0,0,9.126,9.126H815.684a9.126,9.126,0,0,0,9.126-9.126V298.375a9.126,9.126,0,0,0-9.126-9.126Z" transform="translate(-270.83 -273.126)" fill="#303779"/>
        <rect id="Rectangle_4213" data-name="Rectangle 4213" width="325.343" height="183.527" transform="translate(216.401 32.251)" fill="#fff"/>
        <circle id="Ellipse_443" data-name="Ellipse 443" cx="3.337" cy="3.337" r="3.337" transform="translate(375.596 20.572)" fill="#fff"/>
        <path id="Path_10279" data-name="Path 10279" d="M560.3,284.51H328V100.983Z" transform="translate(-111.445 -68.732)" fill="#f3f3ff"/>
        <path id="Path_10280" data-name="Path 10280" d="M826.813,584.838H795.063v-2.288a.454.454,0,0,0-.453-.454H783.723a.453.453,0,0,0-.453.454v2.288h-6.8v-2.288a.453.453,0,0,0-.454-.454H765.126a.454.454,0,0,0-.454.454h0v2.288h-6.8v-2.288a.454.454,0,0,0-.454-.454H746.528a.454.454,0,0,0-.454.454h0v2.288h-6.8v-2.288a.454.454,0,0,0-.454-.454H727.931a.454.454,0,0,0-.454.453v2.288h-6.8v-2.288a.454.454,0,0,0-.454-.454H709.334a.454.454,0,0,0-.454.454h0v2.288h-6.8v-2.288a.454.454,0,0,0-.454-.454H690.737a.454.454,0,0,0-.453.454h0v2.288h-6.8v-2.288a.454.454,0,0,0-.454-.454H597.751a.454.454,0,0,0-.454.454h0v2.288h-6.8v-2.288a.454.454,0,0,0-.454-.454H579.154a.454.454,0,0,0-.454.454h0v2.288h-6.8v-2.288a.454.454,0,0,0-.453-.454H560.556a.454.454,0,0,0-.454.454h0v2.288h-6.8v-2.288a.454.454,0,0,0-.454-.454H541.959a.454.454,0,0,0-.454.454h0v2.288h-6.8v-2.288a.453.453,0,0,0-.454-.454H523.362a.454.454,0,0,0-.454.454h0v2.288h-6.8v-2.288a.454.454,0,0,0-.454-.454H504.765a.454.454,0,0,0-.454.454v2.288h-6.8v-2.288a.454.454,0,0,0-.454-.454H486.167a.454.454,0,0,0-.454.454h0v2.288H464.848a10.886,10.886,0,0,0-10.886,10.886v4.923a10.886,10.886,0,0,0,10.886,10.886H826.814A10.886,10.886,0,0,0,837.7,600.647v-4.923a10.886,10.886,0,0,0-10.886-10.886Z" transform="translate(-263.7 -372.661)" fill="#303779"/>
        <path id="Path_10292" data-name="Path 10292" d="M418.018,685.181H166.171a.661.661,0,0,1,0-1.322H418.018a.661.661,0,0,1,0,1.322Z" transform="translate(-165.51 -407.157)" fill="#cbcbcb"/>
        <path id="Path_10293" data-name="Path 10293" d="M384.712,282.982a10.685,10.685,0,0,0-4.361-6.029,17.859,17.859,0,0,0-22.83,1.388A11.666,11.666,0,0,0,354,283.992a6.931,6.931,0,0,0,1.477,6.311l.28.175a2.522,2.522,0,0,1,1.581-2.626,12.628,12.628,0,0,1,3.225-.723,11.855,11.855,0,0,0,8.036-5.67,13.388,13.388,0,0,0,7.673,8c1.851.724,6.935,1.719,8.7.8C387.212,289.084,385.258,285.458,384.712,282.982Z" transform="translate(-229.421 -267.781)" fill="#2f2e41"/>
      </g>
      <path id="Path_10311" data-name="Path 10311" d="M939.518,372.583H632.282a.971.971,0,1,1,0-1.875H939.518a.971.971,0,1,1,0,1.875Z" transform="translate(295.48 -61.427)" fill="#1f255e"/>
      <ellipse id="Ellipse_447" data-name="Ellipse 447" cx="5.494" cy="5.616" rx="5.494" ry="5.616" transform="translate(938.269 293.316)" fill="#1f255e"/>
      <ellipse id="Ellipse_448" data-name="Ellipse 448" cx="5.494" cy="5.616" rx="5.494" ry="5.616" transform="translate(957.233 293.316)" fill="#1f255e"/>
      <ellipse id="Ellipse_449" data-name="Ellipse 449" cx="5.494" cy="5.616" rx="5.494" ry="5.616" transform="translate(991.913 293.316)" fill="#1f255e"/>
      <path id="Path_10312" data-name="Path 10312" d="M841.1,357.133h-13.48a1.02,1.02,0,0,0,0,2.04H841.1a1.02,1.02,0,1,0,0-2.04Z" transform="translate(382.751 -62.429)" fill="#1f255e"/>
      <path id="Path_10313" data-name="Path 10313" d="M841.1,360.689h-13.48a1.02,1.02,0,0,0,0,2.04H841.1a1.02,1.02,0,1,0,0-2.04Z" transform="translate(382.751 -62.153)" fill="#1f255e"/>
      <path id="Path_10314" data-name="Path 10314" d="M841.1,364.244h-13.48a1.02,1.02,0,0,0,0,2.04H841.1a1.02,1.02,0,1,0,0-2.04Z" transform="translate(382.751 -61.877)" fill="#1f255e"/>
      <rect id="Rectangle_4217" data-name="Rectangle 4217" width="46.827" height="10.013" rx="3.264" transform="translate(1068.793 362.066)" fill="#3a63f3"/>
      <rect id="Rectangle_4218" data-name="Rectangle 4218" width="94.39" height="10.013" rx="3.264" transform="translate(1045.977 382.073)" fill="#3a63f3"/>
      <rect id="Rectangle_4219" data-name="Rectangle 4219" width="94.39" height="10.013" rx="3.264" transform="translate(1045.977 402.081)" fill="#3a63f3"/>
    </g>
  </g>
</svg>
