<svg xmlns="http://www.w3.org/2000/svg" width="12" height="16" viewBox="0 0 12 16">
  <path id="Icon_awesome-file-invoice" data-name="Icon awesome-file-invoice" d="M9,8H3v2H9Zm2.781-4.719L8.722.219A.749.749,0,0,0,8.191,0H8V4h4V3.809A.748.748,0,0,0,11.781,3.281ZM7,4.25V0H.75A.748.748,0,0,0,0,.75v14.5A.748.748,0,0,0,.75,16h10.5a.748.748,0,0,0,.75-.75V5H7.75A.752.752,0,0,1,7,4.25Zm-5-2A.25.25,0,0,1,2.25,2h2.5A.25.25,0,0,1,5,2.25v.5A.25.25,0,0,1,4.75,3H2.25A.25.25,0,0,1,2,2.75Zm0,2A.25.25,0,0,1,2.25,4h2.5A.25.25,0,0,1,5,4.25v.5A.25.25,0,0,1,4.75,5H2.25A.25.25,0,0,1,2,4.75Zm8,9.5a.25.25,0,0,1-.25.25H7.25A.25.25,0,0,1,7,13.75v-.5A.25.25,0,0,1,7.25,13h2.5a.25.25,0,0,1,.25.25ZM10,7.5v3a.5.5,0,0,1-.5.5h-7a.5.5,0,0,1-.5-.5v-3A.5.5,0,0,1,2.5,7h7A.5.5,0,0,1,10,7.5Z" fill="#fff"/>
</svg>
