<svg xmlns="http://www.w3.org/2000/svg" width="12" height="16" viewBox="0 0 12 16">
  <path id="Icon_awesome-file-invoice-dollar" data-name="Icon awesome-file-invoice-dollar" d="M11.781,3.281,8.722.219A.749.749,0,0,0,8.191,0H8V4h4V3.809A.748.748,0,0,0,11.781,3.281ZM7,4.25V0H.75A.748.748,0,0,0,0,.75v14.5A.748.748,0,0,0,.75,16h10.5a.748.748,0,0,0,.75-.75V5H7.75A.752.752,0,0,1,7,4.25Zm-5-2A.25.25,0,0,1,2.25,2h2.5A.25.25,0,0,1,5,2.25v.5A.25.25,0,0,1,4.75,3H2.25A.25.25,0,0,1,2,2.75Zm0,2.5v-.5A.25.25,0,0,1,2.25,4h2.5A.25.25,0,0,1,5,4.25v.5A.25.25,0,0,1,4.75,5H2.25A.25.25,0,0,1,2,4.75ZM6.5,13v.754a.25.25,0,0,1-.25.25h-.5a.25.25,0,0,1-.25-.25v-.759a1.789,1.789,0,0,1-.98-.355.25.25,0,0,1-.018-.379l.367-.35a.256.256,0,0,1,.317-.023.752.752,0,0,0,.4.116h.878a.393.393,0,0,0,.369-.412.408.408,0,0,0-.274-.4l-1.406-.422a1.414,1.414,0,0,1-.987-1.356A1.392,1.392,0,0,1,5.5,8V7.25A.25.25,0,0,1,5.75,7h.5a.25.25,0,0,1,.25.25v.759a1.787,1.787,0,0,1,.98.355.25.25,0,0,1,.018.379l-.367.35a.256.256,0,0,1-.317.023A.75.75,0,0,0,6.413,9H5.535a.393.393,0,0,0-.369.412.408.408,0,0,0,.274.4l1.406.422a1.414,1.414,0,0,1,.987,1.356A1.391,1.391,0,0,1,6.5,13Z" fill="#fff"/>
</svg>
