<svg id="Logo" xmlns="http://www.w3.org/2000/svg" width="212.43" height="32" viewBox="0 0 212.43 32">
  <g id="Group_16824" data-name="Group 16824">
    <g id="Medex_Pharma" data-name="Medex Pharma">
      <g id="Group_17046" data-name="Group 17046">
        <path id="Path_22015" data-name="Path 22015" d="M38.78,8.88c0-.15.11-.13.2,0l7.17,8.06,7.07-8.06c.08-.11.17-.13.19,0L54.29,24H50.36L50,17.62,46.26,22a.11.11,0,0,1-.19,0l-3.9-4.35L41.82,24H37.9Z" fill="#1f255e"/>
        <path id="Path_22016" data-name="Path 22016" d="M56.93,9h10.5v3.4H60.94v3.48h5.41v3.19H60.94v1.56h6.8V24H56.93Z" fill="#1f255e"/>
        <path id="Path_22017" data-name="Path 22017" d="M70.11,9H75.9c4.31,0,7.57,2.84,7.57,7.48A7.182,7.182,0,0,1,75.9,24H70.11Zm5.35,11.57c2.42,0,3.91-1.61,3.91-4.09s-1.49-4.09-3.91-4.09H74.11v8.18Z" fill="#1f255e"/>
        <path id="Path_22018" data-name="Path 22018" d="M85.69,9H96.18v3.4H89.69v3.48H95.1v3.19H89.69v1.56h6.8V24H85.69Z" fill="#1f255e"/>
        <path id="Path_22019" data-name="Path 22019" d="M98.58,9H103l2.23,3.78L107.51,9h4.16l-4.34,6.75L112.48,24H108l-3-5.06L101.92,24H97.76l5.17-8Z" fill="#1f255e"/>
        <path id="Path_22020" data-name="Path 22020" d="M123.94,24h-4V9h5.68c4,0,6.29,2.55,6.29,5.87s-2.27,5.86-6.29,5.86h-1.68Zm1.48-6.62a2.19,2.19,0,0,0,2.46-2.47,2.2,2.2,0,0,0-2.46-2.48h-1.48v4.95Z" fill="#1f255e"/>
        <path id="Path_22021" data-name="Path 22021" d="M143.39,9h4V24h-4V19.25H138.2V24h-4V9h4v6.84h5.19Z" fill="#1f255e"/>
        <path id="Path_22022" data-name="Path 22022" d="M153.14,24h-3.92L156.5,8.77c.07-.15.2-.15.27,0L164,24h-4.14l-.57-1.28h-5.63Zm3.32-7.75L155,19.73h3Z" fill="#1f255e"/>
        <path id="Path_22023" data-name="Path 22023" d="M177.78,24h-4.34l-2.09-3.43h-1.49V24h-4V9h5.68c4,0,6.29,2.55,6.29,5.87a5.22,5.22,0,0,1-2.7,4.84Zm-6.45-6.62a2.19,2.19,0,0,0,2.47-2.47,2.2,2.2,0,0,0-2.47-2.48h-1.47v4.95Z" fill="#1f255e"/>
        <path id="Path_22024" data-name="Path 22024" d="M180.13,8.77c0-.13.09-.15.2,0L188,16.14l7.59-7.41c.09-.09.2-.07.2,0V24h-4V17.11L188,20.83c-.09.09-.11.09-.2,0l-3.7-3.72V24h-4Z" fill="#1f255e"/>
        <path id="Path_22025" data-name="Path 22025" d="M201.54,24h-3.92L204.9,8.77c.07-.15.2-.15.27,0L212.43,24h-4.14l-.57-1.28h-5.63Zm3.32-7.75-1.5,3.48h3Z" fill="#1f255e"/>
      </g>
    </g>
  </g>
  <g id="Group_16887" data-name="Group 16887">
    <rect id="Rectangle_4270" data-name="Rectangle 4270" width="32" height="32" rx="4" fill="#3a63f3"/>
    <g id="M">
      <g id="Group_17047" data-name="Group 17047">
        <path id="Path_22026" data-name="Path 22026" d="M8.86,8.2c0-.16.12-.14.21,0l7.5,8.42L24,8.18c.09-.12.18-.14.2,0L25.07,24H21l-.37-6.67-3.91,4.53a.13.13,0,0,1-.21,0L12.4,17.31,12,24H7.94Z" fill="#fff"/>
      </g>
    </g>
  </g>
</svg>
