<svg xmlns="http://www.w3.org/2000/svg" width="16" height="13.647" viewBox="0 0 16 13.647">
  <g id="Orders" transform="translate(-2.254 -72.56)">
    <path id="Path_21838" data-name="Path 21838" d="M2.256,73.541a.976.976,0,0,1,.942-.977c1.65,0,3.3,0,4.95,0,.092.006.212-.012.264.085a2.508,2.508,0,0,1,.021.521c0,1.7,0,3.4,0,5.1q.742-.565,1.493-1.12c.1-.1.223-.012.315.048.557.368,1.119.727,1.676,1.1q0-2.745,0-5.49c0-.087.013-.2.111-.224a3.974,3.974,0,0,1,.478-.01h4.472a1.5,1.5,0,0,1,.726.1,1.011,1.011,0,0,1,.547.936V82.8a5.5,5.5,0,0,1-.1,1.436,2.637,2.637,0,0,1-1.71,1.846,3.481,3.481,0,0,1-1.165.121q-6.016,0-12.032,0A.983.983,0,0,1,2.254,85.2q0-5.827,0-11.655m2.451,8.967a.686.686,0,0,0-.382.778.639.639,0,0,0,.626.52q2.13,0,4.261,0a.647.647,0,0,0,.653-.584.66.66,0,0,0-.608-.759c-1.38-.01-2.761,0-4.141,0A1.107,1.107,0,0,0,4.707,82.507Z" fill="#fff"/>
  </g>
</svg>
