<svg xmlns="http://www.w3.org/2000/svg" width="640.661" height="454" viewBox="0 0 640.661 454">
  <g id="Group_16851" data-name="Group 16851" transform="translate(-672.17 -179.604)">
    <path id="Path_10340" data-name="Path 10340" d="M220.512,99.055C333.75,272.914,506,107.834,506,229.488S323.995,481.544,202.209,481.544,0,351.142,0,229.488,107.275-74.8,220.512,99.055Z" transform="translate(806.832 152.059)" fill="#e6edff"/>
    <g id="Group_16826" data-name="Group 16826" transform="translate(0 -22)">
      <g id="Group_16821" data-name="Group 16821" transform="translate(729 222.107)">
        <path id="Path_10316" data-name="Path 10316" d="M785.44,638.981H411.053A12.553,12.553,0,0,1,398.5,626.428h0q203.573-23.659,399.493,0h0a12.553,12.553,0,0,1-12.553,12.553Z" transform="translate(-268.231 -320.347)" fill="#2f2e41"/>
        <path id="Path_10317" data-name="Path 10317" d="M797.993,500.951,398.5,500.213l46.3-77.905.221-.369V250.246a15.868,15.868,0,0,1,15.87-15.869h272.5a15.868,15.868,0,0,1,15.869,15.87V423.12Z" transform="translate(-268.231 -194.132)" fill="#3f3d56"/>
        <path id="Path_10318" data-name="Path 10318" d="M488.782,250.957a5.175,5.175,0,0,0-5.169,5.169V412.674a5.175,5.175,0,0,0,5.169,5.169H764.218a5.175,5.175,0,0,0,5.169-5.169V256.126a5.175,5.175,0,0,0-5.169-5.169Z" transform="translate(-296.484 -199.635)" fill="#fff"/>
        <path id="Path_10319" data-name="Path 10319" d="M484.888,531.718a2.221,2.221,0,0,0-2.013,1.289l-14.266,31.014a2.215,2.215,0,0,0,2.012,3.141H770.637a2.215,2.215,0,0,0,1.981-3.206l-15.507-31.014a2.2,2.2,0,0,0-1.981-1.224Z" transform="translate(-291.436 -292.835)" fill="#2f2e41"/>
        <circle id="Ellipse_451" data-name="Ellipse 451" cx="3.323" cy="3.323" r="3.323" transform="translate(325.585 42.091)" fill="#fff"/>
        <path id="Path_10320" data-name="Path 10320" d="M648.821,593.619a2.219,2.219,0,0,0-2.139,1.639L643.1,608.55a2.215,2.215,0,0,0,2.139,2.791H713.3a2.215,2.215,0,0,0,2.093-2.94l-4.6-13.292a2.216,2.216,0,0,0-2.093-1.49Z" transform="translate(-349.402 -313.383)" fill="#2f2e41"/>
        <path id="Path_10321" data-name="Path 10321" d="M568.763,337.135v2.953H264.306l.229-.369v-2.585Z" transform="translate(-87.737 -111.912)" fill="#2f2e41"/>
        <circle id="Ellipse_452" data-name="Ellipse 452" cx="51.69" cy="51.69" r="51.69" transform="translate(420.844 0)" fill="#3a63f3"/>
        <path id="Path_10322" data-name="Path 10322" d="M920.141,269.445H877.311a2.957,2.957,0,0,1-2.954-2.954V240.646a2.957,2.957,0,0,1,2.954-2.954h42.829a2.957,2.957,0,0,1,2.954,2.954v25.845a2.957,2.957,0,0,1-2.954,2.954Zm-42.829-28.8v25.845h42.831l0-25.845Z" transform="translate(-426.192 -195.233)" fill="#fff"/>
        <path id="Path_10323" data-name="Path 10323" d="M917.522,228.9H890.938V217.089c0-8.558,5.59-14.769,13.292-14.769s13.292,6.211,13.292,14.769Zm-23.63-2.954h20.676v-8.861c0-6.956-4.251-11.815-10.338-11.815s-10.338,4.859-10.338,11.815Z" transform="translate(-431.696 -183.491)" fill="#fff"/>
        <circle id="Ellipse_453" data-name="Ellipse 453" cx="2.954" cy="2.954" r="2.954" transform="translate(469.58 54.644)" fill="#fff"/>
        <path id="Path_10324" data-name="Path 10324" d="M749.088,391.129H536.221a3.947,3.947,0,0,1-3.942-3.942v-52.8a3.947,3.947,0,0,1,3.942-3.942H749.088a3.947,3.947,0,0,1,3.942,3.942v52.8A3.946,3.946,0,0,1,749.088,391.129Zm-212.867-59.11a2.368,2.368,0,0,0-2.365,2.365v52.8a2.368,2.368,0,0,0,2.365,2.365H749.088a2.368,2.368,0,0,0,2.365-2.365v-52.8a2.368,2.368,0,0,0-2.365-2.365Z" transform="translate(-312.639 -226.021)" fill="#e6e6e6"/>
        <circle id="Ellipse_454" data-name="Ellipse 454" cx="16.057" cy="16.057" r="16.057" transform="translate(240.6 116.68)" fill="#e6e6e6"/>
        <path id="Path_10325" data-name="Path 10325" d="M641.873,356.8a2.676,2.676,0,1,0,0,5.353H768.039a2.676,2.676,0,0,0,0-5.353Z" transform="translate(-348.13 -234.772)" fill="#e6e6e6"/>
        <path id="Path_10326" data-name="Path 10326" d="M641.873,380.842a2.676,2.676,0,1,0,0,5.353h54.29a2.676,2.676,0,0,0,0-5.353Z" transform="translate(-348.13 -242.751)" fill="#e6e6e6"/>
      </g>
      <g id="Group_16825" data-name="Group 16825" transform="translate(-2055.83 3061.303)">
        <path id="Path_10252" data-name="Path 10252" d="M544.437,462.546a7.814,7.814,0,0,0-7.556-9.3l-6.6-16.593-11.061,1.55,9.647,23.3a7.856,7.856,0,0,0,15.569,1.04Z" transform="translate(2368.556 -3047.892)" fill="#9f616a"/>
        <path id="Path_10253" data-name="Path 10253" d="M516.34,416.455l-3.427-8.173-21.358-40.655,1.161-75.226.223-.03c13.666-1.806,22.913,61.164,23.3,63.845l13.494,46.152,3.212,10.173Z" transform="translate(2376.275 -3007.63)" fill="#3a63f3"/>
        <path id="Path_10254" data-name="Path 10254" d="M296.517,469.16H306.9l4.94-40.054H296.515Z" transform="translate(2563.28 -2901.709)" fill="#9f616a"/>
        <path id="Path_10255" data-name="Path 10255" d="M476.741,679.778h20.451a13.033,13.033,0,0,1,13.033,13.032v.424H476.742Z" transform="translate(2380.407 -3115.717)" fill="#1f255e"/>
        <path id="Path_10256" data-name="Path 10256" d="M164.1,450l8.52,5.937L199.569,425.9l-12.575-8.763Z" transform="translate(2600.222 -2898.37)" fill="#9f616a"/>
        <path id="Path_10257" data-name="Path 10257" d="M344.69,656.579l16.779,11.692h0a13.033,13.033,0,0,1,3.241,18.144l-.242.347L337,667.619Z" transform="translate(2419.392 -3109.245)" fill="#1f255e"/>
        <path id="Path_10258" data-name="Path 10258" d="M441.35,609.414l-.449-75.138-6.534-47.246-12.182,41.548-.024.034L378.016,592.7,360.839,584l.094-.224c1.05-2.5,25.785-61.138,32.434-61.138a3.591,3.591,0,0,0,3.059-1.344c1.951-2.606.362-8.135.346-8.191-1.9-7.892,2.882-10.58,3.835-11.029l2.564-52.921.266.018,69.5,4.875-2.916,66.166-6.272,86.69-.215.024Z" transform="translate(2412.741 -3051.378)" fill="#1f255e"/>
        <path id="Path_10259" data-name="Path 10259" d="M488.745,420.613l-.3-.024L413.7,414.563l.185-24.731,3.658-64.574.021-.045,14.9-32.344,10.561-4.782,15.409-.811.038.009,14.062,3.484,14.628,105.01Z" transform="translate(2397.994 -3006.219)" fill="#3a63f3"/>
        <circle id="Ellipse_441" data-name="Ellipse 441" cx="19.679" cy="19.679" r="19.679" transform="translate(2822.691 -2752.33) rotate(-28.663)" fill="#9f616a"/>
        <path id="Path_10260" data-name="Path 10260" d="M437.55,247.521v-7.668s-6.184-7.283.618-9.117c0,0,1.855-18.345,17.932-9.784,0,0,22.261-3.669,19.787,9.172,0,0,5.565-3.352,3.71,5.208l-3.587,13.791s1.733-9.109-3.832-10.332l-3.092-1.835s-8.657,8.561-21.642-1.835c0,0-5.565-1.328-4.947,4.175S437.55,247.521,437.55,247.521Z" transform="translate(2392.059 -2987.082)" fill="#2f2e41"/>
        <path id="Path_10261" data-name="Path 10261" d="M451.866,437.715a7.814,7.814,0,0,0-9.1-7.792L433.3,414.783l-10.6,3.51,13.672,21.192a7.856,7.856,0,0,0,15.5-1.771Z" transform="translate(2395.486 -3041.791)" fill="#9f616a"/>
        <path id="Path_10262" data-name="Path 10262" d="M422.608,399.427l-17.13-34.778.015-.085c.069-.385,6.964-38.671,12.238-52.744,5.307-14.162,12.571-17.005,12.878-17.119l.153-.057,6.514,6.248-9.023,60.225,9.726,29.046Z" transform="translate(2400.288 -3008.274)" fill="#3a63f3"/>
        <path id="Path_10265" data-name="Path 10265" d="M383.375,699.58H184.419c-.288,0-.522-.323-.522-.721s.234-.721.522-.721H383.375c.288,0,.522.323.522.721S383.663,699.58,383.375,699.58Z" transform="translate(2544.103 -3120.839)" fill="#cbcbcb"/>
      </g>
    </g>
  </g>
</svg>
