<svg id="Reverse_Logistics_return_order_packaging_back_refund-512" xmlns="http://www.w3.org/2000/svg" width="15.858" height="17.439" viewBox="0 0 15.858 17.439">
  <g id="_000000ff" data-name="#000000ff" transform="translate(0 0)">
    <path id="Path_21978" data-name="Path 21978" d="M105.116,72.586a.978.978,0,0,1,.821.105q3.392,1.79,6.786,3.576a.971.971,0,0,1,.615.864q.005,4.1,0,8.208a.939.939,0,0,1-.518.856q-3.475,1.833-6.952,3.663a.937.937,0,0,1-.9.01q-3.5-1.848-7-3.692a.928.928,0,0,1-.487-.837q0-4.084,0-8.169a.926.926,0,0,1,.485-.829l6.858-3.613a2.074,2.074,0,0,1,.291-.14M98.4,76.763q.906.458,1.811.917a2.767,2.767,0,0,1,.443-.254q3.323-1.684,6.646-3.366c-.566-.3-1.13-.6-1.7-.892a.362.362,0,0,0-.358-.011q-3.424,1.8-6.845,3.605m2.284,1.293a.365.365,0,0,0-.207.364c0,1.226,0,2.453,0,3.68.294-.043.622-.2.9-.01.29.228.5.543.791.774.011-1.114,0-2.227.005-3.341a.92.92,0,0,1,.284-.666,1.6,1.6,0,0,1,.418-.256q3.323-1.686,6.647-3.366-.8-.425-1.6-.843-3.617,1.836-7.239,3.665m2.406,1.081c.721.362,1.439.728,2.16,1.091a.39.39,0,0,0,.384-.027c2.263-1.148,4.529-2.289,6.79-3.44-.76-.4-1.515-.8-2.275-1.2q-3.529,1.789-7.059,3.573m-5.03,6.2a.36.36,0,0,0,.216.346q3.422,1.808,6.847,3.61,0-4.247,0-8.493c-.8-.383-1.581-.8-2.374-1.193,0,1.061,0,2.122,0,3.183a.613.613,0,0,1-.313.556.606.606,0,0,1-.718-.1c-.221-.224-.436-.455-.655-.68-.177.034-.351.086-.531.1a.607.607,0,0,1-.629-.6c0-1.2,0-2.4,0-3.6a2.7,2.7,0,0,1,.02-.292l-1.86-.941q0,4.051,0,8.1m10.421-5.933c-.929.463-1.846.949-2.782,1.4q0,4.247,0,8.493,3.429-1.8,6.853-3.612a.383.383,0,0,0,.211-.39q0-4.028,0-8.056Q110.623,78.324,108.48,79.406Z" transform="translate(-97.481 -72.538)" fill="#69747f"/>
  </g>
</svg>
