<svg id="_000000ff" data-name="#000000ff" xmlns="http://www.w3.org/2000/svg" width="20" height="20" viewBox="0 0 20 20">
  <path id="Path_21982" data-name="Path 21982" d="M0,0H6.66q0,3.33,0,6.661H0V0M1.559,1.558q0,1.772,0,3.544H5.1q0-1.772,0-3.544Z" fill="#303030"/>
  <path id="Path_21983" data-name="Path 21983" d="M112.137,0H113.7q0,1.406,0,2.812,1.759,0,3.517,0c0,2.523.007,5.046.006,7.569h-1.408q0,2.191,0,4.384h.9q0-1.933,0-3.867h4.363q0,2.109,0,4.218c.3,0,.6,0,.9,0q0-.664,0-1.328h1.558q0,1.445,0,2.89c-.467,0-.934,0-1.4,0,0,.3,0,.6,0,.9.7,0,1.4,0,2.1,0q0,1.211,0,2.421h-1.558q0-.43,0-.859h-2.1q0-1.23,0-2.461h-1.052c0-1.406,0-2.812,0-4.218h-1.246q0,1.191,0,2.382c-.35,0-.7,0-1.051,0q0,1.353,0,2.706h2.669c0,.521,0,1.041,0,1.562h-2.745c0-.486,0-.972,0-1.457h-1.4q0,.567,0,1.133h-1.674c0,.4,0,.807,0,1.211H112.5q0-1.387,0-2.774,1.577,0,3.154,0,0-.449,0-.9h-1.4c0-.351,0-.7,0-1.054-.558,0-1.116,0-1.675,0,0-.521,0-1.041,0-1.562q.837,0,1.674,0,0-.977,0-1.953h-2.376c0,.234,0,.469,0,.7H109q0-1.836,0-3.671,1.577,0,3.154,0c0-.325,0-.651,0-.976h1.48q0-.7,0-1.406c-.493,0-.987,0-1.48,0,0-.7,0-1.406,0-2.109h1.48q0-.7,0-1.405c-.5,0-1,0-1.493,0q0-1.445,0-2.89m1.571,4.375q0,.977,0,1.953c.649,0,1.3,0,1.947,0,0-.651,0-1.3,0-1.952h-1.947m0,3.516q0,1.153,0,2.3c.651,0,1.3,0,1.953,0q0-1.151,0-2.3c-.651,0-1.3,0-1.953,0m-3.155,2.461c0,.182,0,.364,0,.547.441,0,.882,0,1.323,0q0-.273,0-.546Z" transform="translate(-104.691)" fill="#303030"/>
  <path id="Path_21984" data-name="Path 21984" d="M340.98,0h6.661V6.661h-6.66q0-3.33,0-6.66m1.559,1.558q0,1.772,0,3.544,1.772,0,3.544,0,0-1.772,0-3.544Z" transform="translate(-327.641)" fill="#303030"/>
  <path id="Path_21985" data-name="Path 21985" d="M271,1.994c.519,0,1.038,0,1.557,0q0,.7,0,1.4H271Q270.994,2.695,271,1.994Z" transform="translate(-260.407 -1.916)" fill="#303030"/>
  <path id="Path_21986" data-name="Path 21986" d="M60.3,60.3h1.963q0,.981,0,1.963H60.3Q60.3,61.279,60.3,60.3Z" transform="translate(-57.951 -57.949)" fill="#303030"/>
  <path id="Path_21987" data-name="Path 21987" d="M401.3,60.3h1.963q0,.981,0,1.963H401.3Q401.3,61.277,401.3,60.3Z" transform="translate(-385.607 -57.947)" fill="#303030"/>
  <path id="Path_21988" data-name="Path 21988" d="M354.509,179.994h4.751v1.558h-4.632q0,.837,0,1.674c-.519,0-1.038,0-1.558,0q0-.876,0-1.752c.479,0,.959,0,1.438,0Q354.508,180.734,354.509,179.994Z" transform="translate(-339.26 -172.958)" fill="#303030"/>
  <path id="Path_21989" data-name="Path 21989" d="M1.779,190.991c.52,0,1.039,0,1.558,0q0,1.752,0,3.5c-.489,0-.978,0-1.467,0,0,.5,0,.994,0,1.49-.623,0-1.246,0-1.869,0v-1.559c.573,0,1.146,0,1.718,0,.088.022.053-.083.062-.129C1.777,193.2,1.779,192.094,1.779,190.991Z" transform="translate(0 -183.523)" fill="#303030"/>
  <path id="Path_21990" data-name="Path 21990" d="M441.994,234h2.726v1.558c-.389,0-.779,0-1.168,0,0,.441,0,.883,0,1.323h-1.557Q441.992,235.437,441.994,234Z" transform="translate(-424.72 -224.851)" fill="#303030"/>
  <path id="Path_21991" data-name="Path 21991" d="M0,340.98q3.33,0,6.66,0,0,3.33,0,6.66H0V340.98m1.558,1.559q0,1.772,0,3.544,1.772,0,3.544,0,0-1.772,0-3.544Z" transform="translate(0 -327.641)" fill="#303030"/>
  <path id="Path_21992" data-name="Path 21992" d="M60.3,401.3h1.963q0,.981,0,1.963H60.3Q60.3,402.277,60.3,401.3Z" transform="translate(-57.947 -385.607)" fill="#303030"/>
</svg>
