<svg xmlns="http://www.w3.org/2000/svg" width="15.451" height="16" viewBox="0 0 15.451 16">
  <g id="support" transform="translate(-31.99 -32.059)">
    <g id="_111111ff" data-name="#111111ff" transform="translate(31.99 32.059)">
      <path id="Path_21848" data-name="Path 21848" d="M37.919,32.31a6.561,6.561,0,0,1,3.454-.039,6.667,6.667,0,0,1,4.965,5.949,1.669,1.669,0,0,1,1.1,1.6q0,1.363,0,2.725a2.208,2.208,0,0,1-2.134,2.2c-.037.013-.121-.023-.123.038a3.862,3.862,0,0,1-3.812,3.276q-1.657,0-3.313,0a.555.555,0,0,1-.548-.551c0-.38,0-.76,0-1.139a.552.552,0,0,1,.551-.516h2.2a.554.554,0,0,1,.551.515c.007.2,0,.392,0,.588a6.55,6.55,0,0,0,1-.037,2.769,2.769,0,0,0,2.254-2.167.562.562,0,0,1-.5-.555q0-2.76,0-5.52a.551.551,0,0,1,.514-.547c.367-.006.734,0,1.1,0a5.518,5.518,0,0,0-10.958,0c.367,0,.734,0,1.1,0a.553.553,0,0,1,.515.548q0,2.76,0,5.52a.555.555,0,0,1-.553.55q-.826,0-1.653,0a1.657,1.657,0,0,1-1.656-1.653q0-1.675,0-3.349a1.663,1.663,0,0,1,1.1-1.525,6.664,6.664,0,0,1,4.825-5.91Z" transform="translate(-31.99 -32.059)" fill="#fff"/>
    </g>
  </g>
</svg>
