<svg id="Terms_Conditions" data-name="Terms &amp; Conditions" xmlns="http://www.w3.org/2000/svg" width="16" height="16" viewBox="0 0 16 16">
  <path id="Path_21849" data-name="Path 21849" d="M7.577,0h.346a24.278,24.278,0,0,1,3.861.325,4.137,4.137,0,0,1,2.141,1.223,4.068,4.068,0,0,1,1.088,2.071,25.429,25.429,0,0,1,.306,4.509c-.009.481-.026.961-.061,1.441a4.034,4.034,0,0,0-1.84-.767A4.062,4.062,0,0,0,8.9,13.871a4.014,4.014,0,0,0,.675,1.386,26.545,26.545,0,0,1-5.88-.233,4.083,4.083,0,0,1-2.234-1.191A4.059,4.059,0,0,1,.294,11.605,25.1,25.1,0,0,1,0,7.9V7.427A25.112,25.112,0,0,1,.294,3.719,4.04,4.04,0,0,1,1.411,1.536,4.122,4.122,0,0,1,3.593.315,24.85,24.85,0,0,1,7.577,0M3.794,3.707a.886.886,0,0,0,.054,1.768q3.8,0,7.594,0a.887.887,0,1,0,0-1.773q-2.423,0-4.847,0c-.935,0-1.869-.007-2.8.005M3.674,7.429a.887.887,0,0,0-.539,1.349.9.9,0,0,0,.774.4q2.2,0,4.41,0a.887.887,0,0,0,.447-1.653.9.9,0,0,0-.48-.12H4.065A1.705,1.705,0,0,0,3.674,7.429Z" fill="#fff"/>
  <path id="Path_21850" data-name="Path 21850" d="M310.942,308.194a3.144,3.144,0,0,1,3.066,1.5,3.232,3.232,0,0,1,.45,1.467v.3a3.23,3.23,0,0,1-.415,1.416,3.165,3.165,0,0,1-1.291,1.236,3.258,3.258,0,0,1-1.288.349h-.3a3.215,3.215,0,0,1-1.454-.439,3.146,3.146,0,0,1,1.231-5.831m.01,1.012a.328.328,0,0,0-.215.253,2.1,2.1,0,0,0,0,.595.326.326,0,0,0,.265.277,2.061,2.061,0,0,0,.586,0,.328.328,0,0,0,.289-.27,2.109,2.109,0,0,0,0-.6.328.328,0,0,0-.284-.275,1.914,1.914,0,0,0-.64.015m.209,1.559a.588.588,0,0,0-.434.548q0,.789,0,1.578a.586.586,0,0,0,1.11.249.971.971,0,0,0,.062-.465c0-.464,0-.928,0-1.392A.589.589,0,0,0,311.161,310.764Z" transform="translate(-298.459 -298.464)" fill="#fff"/>
</svg>
