<svg id="active_retailer" xmlns="http://www.w3.org/2000/svg" width="24" height="22.58" viewBox="0 0 24 22.58">
  <g id="_000000ff" data-name="#000000ff" transform="translate(0 0)">
    <path id="Path_10275" data-name="Path 10275" d="M112.4,48.266h15.566q0,.635,0,1.27H112.4C112.4,49.113,112.4,48.689,112.4,48.266Z" transform="translate(-108.186 -48.266)" fill="#fff"/>
    <path id="Path_10276" data-name="Path 10276" d="M35.2,93.321q2.348-3.225,4.685-6.458h2.18q-1.332,3.063-2.665,6.126a2.025,2.025,0,0,0-.1.427,2.079,2.079,0,0,1-1.075,1.4,2.092,2.092,0,0,1-3.025-1.5Z" transform="translate(-35.2 -84.755)" fill="#fff"/>
    <path id="Path_10277" data-name="Path 10277" d="M126.823,93.09q1.357-3.111,2.709-6.224c.757,0,1.515,0,2.272,0q-.463,3.2-.928,6.4a2.088,2.088,0,0,1-.782,1.349,2.112,2.112,0,0,1-1.955.329,2.082,2.082,0,0,1-1.39-1.643A.66.66,0,0,1,126.823,93.09Z" transform="translate(-121.78 -84.759)" fill="#fff"/>
    <path id="Path_10278" data-name="Path 10278" d="M218.144,93.029q.45-3.084.895-6.169h2.307c.3,2.115.619,4.229.917,6.345a2.087,2.087,0,0,1-4.054.409A1.093,1.093,0,0,1,218.144,93.029Z" transform="translate(-208.192 -84.753)" fill="#fff"/>
    <path id="Path_10279" data-name="Path 10279" d="M292.64,86.85q1.137,0,2.273,0c.928,2.135,1.862,4.267,2.783,6.4a2.071,2.071,0,0,1-1.759,1.763,2.1,2.1,0,0,1-1.81-.619,2.067,2.067,0,0,1-.552-1.107Q293.108,90.071,292.64,86.85Z" transform="translate(-278.665 -84.744)" fill="#fff"/>
    <path id="Path_10280" data-name="Path 10280" d="M351.05,86.86h2.181q2.342,3.229,4.683,6.459a2.093,2.093,0,0,1-3.955.528,3.916,3.916,0,0,1-.228-.82Q352.393,89.943,351.05,86.86Z" transform="translate(-333.914 -84.753)" fill="#fff"/>
    <path id="Path_10281" data-name="Path 10281" d="M72.234,226.8a2.978,2.978,0,0,0,1.751,1.292,2.923,2.923,0,0,0,2.607-.584,3.565,3.565,0,0,0,.622-.706,2.911,2.911,0,0,0,4.956,0,3.1,3.1,0,0,0,1.222,1.093,2.929,2.929,0,0,0,2.655-.058,3.014,3.014,0,0,0,1.1-1.039,2.918,2.918,0,0,0,2.664,1.381q0,5.776,0,11.553H79.158q0-4.927,0-9.855H72.124q0,4.926,0,9.852H69.571q0-5.775,0-11.549a2.913,2.913,0,0,0,2.664-1.38m11.294,3.358q0,.964,0,1.928c-.638,0-1.276,0-1.914,0-.011.644,0,1.288,0,1.932.64,0,1.279,0,1.919,0q0,.964,0,1.928h1.918c0-.643,0-1.286,0-1.929h1.92v-1.929H85.447c0-.643,0-1.286,0-1.929Z" transform="translate(-67.694 -217.154)" fill="#fff"/>
    <path id="Path_10282" data-name="Path 10282" d="M131.959,298.533h5.395q0,4.507,0,9.014h-5.394q0-4.507,0-9.014m3.955,3.549a.524.524,0,1,0,.684.627A.528.528,0,0,0,135.914,302.082Z" transform="translate(-126.707 -284.971)" fill="#fff"/>
  </g>
</svg>
