<svg xmlns="http://www.w3.org/2000/svg" width="12" height="8.003" viewBox="0 0 12 8.003">
  <path id="Icon_ionic-ios-arrow-round-forward" data-name="Icon ionic-ios-arrow-round-forward" d="M15.528,11.4a.545.545,0,0,0,0,.767l2.534,2.538H8.413a.542.542,0,0,0,0,1.084h9.641l-2.534,2.538a.549.549,0,0,0,0,.767.54.54,0,0,0,.763,0l3.435-3.46h0a.609.609,0,0,0,.113-.171.517.517,0,0,0,.042-.208.543.543,0,0,0-.154-.379l-3.435-3.46A.531.531,0,0,0,15.528,11.4Z" transform="translate(-7.875 -11.252)" fill="#fff"/>
</svg>
