<svg xmlns="http://www.w3.org/2000/svg" width="16" height="16.001" viewBox="0 0 16 16.001">
  <g id="Dashboard_icon" data-name="Dashboard icon" transform="translate(-21.322 -21.317)" opacity="0.9">
    <rect id="Rectangle_4195" data-name="Rectangle 4195" width="16" height="16" transform="translate(21.322 21.317)" fill="none"/>
    <path id="Path_10105" data-name="Path 10105" d="M23.06,21.321c1.235-.007,2.471,0,3.706,0a1.815,1.815,0,0,1,1.828,1.829c0,.508,0,1.015,0,1.523a1.818,1.818,0,0,1-1.148,1.612,2.506,2.506,0,0,1-1.02.127q-1.636,0-3.273,0a1.816,1.816,0,0,1-1.827-1.794c0-.49,0-.979,0-1.469a1.813,1.813,0,0,1,1.737-1.824Z" transform="translate(0)" fill="#fff"/>
    <path id="Path_10106" data-name="Path 10106" d="M279.061,21.321c1.236-.007,2.472,0,3.709,0a1.815,1.815,0,0,1,1.826,1.828q0,3.257,0,6.514a1.814,1.814,0,0,1-1.761,1.836c-1.239,0-2.479,0-3.718,0a1.823,1.823,0,0,1-1.616-1.034,1.869,1.869,0,0,1-.177-.84q0-3.238,0-6.477a1.814,1.814,0,0,1,1.736-1.825Z" transform="translate(-247.275)" fill="#fff"/>
    <path id="Path_10107" data-name="Path 10107" d="M22.936,192a3.309,3.309,0,0,1,.363-.014c1.159,0,2.319,0,3.478,0a1.812,1.812,0,0,1,1.785,1.429,3.518,3.518,0,0,1,.043.753q0,3.1,0,6.2a1.82,1.82,0,0,1-1.175,1.678,1.911,1.911,0,0,1-.687.117H23.434a3.309,3.309,0,0,1-.617-.032,1.82,1.82,0,0,1-1.22-.843,1.838,1.838,0,0,1-.264-.987q0-3.24,0-6.48a1.815,1.815,0,0,1,1.6-1.825Z" transform="translate(-0.011 -164.855)" fill="#fff"/>
    <path id="Path_10108" data-name="Path 10108" d="M279.06,341.319c1.213-.008,2.425,0,3.638,0a1.928,1.928,0,0,1,.75.128,1.818,1.818,0,0,1,1.144,1.609c.007.53,0,1.059,0,1.589a1.819,1.819,0,0,1-1.076,1.607,1.878,1.878,0,0,1-.788.157h-3.2a2.886,2.886,0,0,1-.931-.084,1.821,1.821,0,0,1-1.274-1.744c0-.455,0-.91,0-1.366a1.929,1.929,0,0,1,.116-.718A1.819,1.819,0,0,1,279.06,341.319Z" transform="translate(-247.274 -309.091)" fill="#fff"/>
  </g>
</svg>
