<svg id="delete" xmlns="http://www.w3.org/2000/svg" width="13.176" height="16" viewBox="0 0 13.176 16">
  <path id="Path_9998" data-name="Path 9998" d="M126.43.965H129.1v.45h.965V.9a.9.9,0,0,0-.9-.9h-2.8a.9.9,0,0,0-.9.9v.513h.965Zm0,0" transform="translate(-121.178 0)" fill="#7a7a7a"/>
  <path id="Path_9999" data-name="Path 9999" d="M50.681,167.75H40.947a.439.439,0,0,0-.455.459l.814,9.367a1.053,1.053,0,0,0,1.077.926h6.863a1.053,1.053,0,0,0,1.077-.926l.814-9.367a.438.438,0,0,0-.455-.459ZM43.3,177.5h-.033a.5.5,0,0,1-.517-.453l-.51-7.69a.5.5,0,0,1,.486-.511.508.508,0,0,1,.549.452l.51,7.69A.5.5,0,0,1,43.3,177.5Zm3.034-.482a.52.52,0,0,1-1.037,0v-7.69a.52.52,0,0,1,1.037,0Zm3.045-7.662-.487,7.69a.5.5,0,0,1-.517.454h-.031a.5.5,0,0,1-.487-.51l.487-7.69a.506.506,0,0,1,.548-.453A.5.5,0,0,1,49.383,169.36Zm0,0" transform="translate(-39.226 -162.502)" fill="#7a7a7a"/>
  <path id="Path_10000" data-name="Path 10000" d="M13.155,77.581l-.336-.95a.648.648,0,0,0-.617-.419H.975a.648.648,0,0,0-.617.419l-.336.95a.387.387,0,0,0,.177.463.436.436,0,0,0,.223.061H12.755a.434.434,0,0,0,.223-.061.387.387,0,0,0,.177-.463Zm0,0" transform="translate(0 -73.831)" fill="#7a7a7a"/>
</svg>
