<svg id="deliveryboy_assigned" xmlns="http://www.w3.org/2000/svg" width="24.376" height="24" viewBox="0 0 24.376 24">
  <g id="_000000ff" data-name="#000000ff" transform="translate(0 0)">
    <path id="Path_10304" data-name="Path 10304" d="M225.667,16.066a2.009,2.009,0,1,1-1.118.631A2.014,2.014,0,0,1,225.667,16.066Z" transform="translate(-213.252 -16.031)" fill="#fff"/>
    <path id="Path_10305" data-name="Path 10305" d="M93.606,104.868a1.467,1.467,0,0,1,1.685-1.113,1.484,1.484,0,0,1,1.181,1.65,6.817,6.817,0,0,0,3.452,1.92c.944.02,1.89,0,2.834.011a1.2,1.2,0,0,1,1.116,1.075c.016.333.011.669,0,1a1.2,1.2,0,0,1-1.062,1.1c-.3.02-.6.006-.9.01a6.191,6.191,0,0,0,.612,2.34,3.153,3.153,0,0,0,1.019,1.236,2.386,2.386,0,0,1,1.015,1.632,2.568,2.568,0,0,1-.072,1.008,3.266,3.266,0,0,1,3.445,3.016.414.414,0,0,1-.346.428,2.571,2.571,0,1,1-5.018,1.085c-.1.126-.188.291-.352.345a.4.4,0,0,1-.472-.182,2.613,2.613,0,0,1-.249-.7.576.576,0,0,1-.385.162q-3.426,0-6.852,0a2.574,2.574,0,0,1-5.135,0,1.564,1.564,0,0,1-1.249-.508,1.726,1.726,0,0,1-.441-1.032,4.013,4.013,0,0,1,.188-1.466,11.538,11.538,0,0,1,1.156-2.5c2.048-.011,4.1,0,6.143,0a2.14,2.14,0,0,0,.594,2.329q.157-2.621.31-5.244a.4.4,0,0,0-.337-.435c-.7-.09-1.4-.148-2.1-.242a1.2,1.2,0,0,1-.937-1.382q.575-2.774,1.161-5.547m2.307,2.978c-.1.424-.2.846-.294,1.27a.4.4,0,0,0,.233.475c.549.209,1.1.41,1.65.618a2.175,2.175,0,0,1,.679.327,1.209,1.209,0,0,1,.419,1.086q-.343,3.239-.685,6.478h1.561q0-4.4,0-8.8a6.916,6.916,0,0,1-3.562-1.458m9.185,12.046a4.455,4.455,0,0,0-1.577.576.346.346,0,0,0-.187.288,1.772,1.772,0,1,0,3.4-.592c-.049-.106-.1-.249-.227-.273a4.43,4.43,0,0,0-1.41,0m-15.172,1a1.772,1.772,0,0,0,3.008,1.08,1.81,1.81,0,0,0,.519-1.08Z" transform="translate(-83.558 -99.447)" fill="#fff"/>
    <path id="Path_10306" data-name="Path 10306" d="M8.91,128.013a1.818,1.818,0,0,1,.43-.034c1.84,0,3.681,0,5.521,0a1.206,1.206,0,0,1,1.152,1.148c.006,1.474,0,2.949,0,4.423a1.209,1.209,0,0,1-1.257,1.255H9.187A1.212,1.212,0,0,1,8.051,134a1.827,1.827,0,0,1-.068-.647c0-1.39,0-2.779,0-4.168A1.211,1.211,0,0,1,8.91,128.013Z" transform="translate(-7.983 -122.398)" fill="#fff"/>
    <path id="Path_10307" data-name="Path 10307" d="M96.049,279.192a.4.4,0,0,1,.4-.409q3.188-.006,6.376,0a.406.406,0,0,1,.434.409c0,.553,0,1.107,0,1.66-2.173,0-4.346,0-6.518,0A2.3,2.3,0,0,1,96.049,279.192Z" transform="translate(-91.659 -265.662)" fill="#fff"/>
  </g>
</svg>
