<svg id="delivered" xmlns="http://www.w3.org/2000/svg" width="22.974" height="24" viewBox="0 0 22.974 24">
  <g id="_000000ff" data-name="#000000ff" transform="translate(0)">
    <path id="Path_10286" data-name="Path 10286" d="M214.406,0h.01c.076.139.177.263.258.4-.267.178-.537.351-.8.527q0,11.071,0,22.143c.266.182.54.351.807.532-.08.136-.182.26-.258.4h-.01l-.008-.028c-.325-.223-.66-.432-.989-.649q0-11.05,0-22.1c-1.181.769-2.359,1.542-3.542,2.307-.006,1.24,0,2.479,0,3.719a1.746,1.746,0,0,0-.716,3.016,3.814,3.814,0,0,0-.855.529.749.749,0,0,0-.24.433,13.424,13.424,0,0,0-.259,1.979c-.517.232-1.032.469-1.548.7a.994.994,0,0,0-.375.234.717.717,0,0,0,.817,1.14q1.037-.468,2.071-.941a.744.744,0,0,0,.37-.333,2.068,2.068,0,0,0,.114-.677,3.632,3.632,0,0,1-.03.9q-.56,1.779-1.123,3.557a2.288,2.288,0,0,0,1.313.453v3.183q-4.425,0-8.849,0,0-2.813,0-5.627c.789-.135,1.579-.269,2.367-.408-.284-1.658-.573-3.315-.858-4.972q-.754.132-1.508.259,0-3.7,0-7.4c2.97,0,5.939,0,8.909,0a2.071,2.071,0,0,1,.376-.272L214.343.068Z" transform="translate(-191.7)" fill="#fff"/>
    <path id="Path_10287" data-name="Path 10287" d="M59.809,156.565a1.555,1.555,0,0,1,1.642.287,3.318,3.318,0,0,1,1.266.156.513.513,0,0,1,.289.219c.049.1-.03.209-.109.269a1.7,1.7,0,0,1-.642.252,4.035,4.035,0,0,1-1.562.016,1.071,1.071,0,0,1-.608-.3.681.681,0,0,0,.424.384,3.862,3.862,0,0,0,1.43.29,1.541,1.541,0,1,1-2.13-1.576Z" transform="translate(-56.614 -149.115)" fill="#fff"/>
    <path id="Path_10288" data-name="Path 10288" d="M377.6,159.451a1.472,1.472,0,1,1-.759.5,1.478,1.478,0,0,1,.759-.5m-.648,1.726a1.251,1.251,0,0,0,.953.574,1.162,1.162,0,0,0,.832-.623A2.757,2.757,0,0,1,376.949,161.177Z" transform="translate(-359.402 -151.927)" fill="#fff"/>
    <path id="Path_10289" data-name="Path 10289" d="M432.1,201.138a1.8,1.8,0,0,0,.426-.708,1.434,1.434,0,0,1,.385.567,13.68,13.68,0,0,0,.364,1.478.606.606,0,0,0,.47.366c0,.066,0,.132,0,.2a1.119,1.119,0,0,1-1.338-.647A8.445,8.445,0,0,1,432.1,201.138Z" transform="translate(-412.369 -191.038)" fill="#fff"/>
    <path id="Path_10290" data-name="Path 10290" d="M319.19,218.225a1.659,1.659,0,0,0,1.742-.175,4.2,4.2,0,0,0,.429,1.439,1.376,1.376,0,0,0,.578.458,2.765,2.765,0,0,0,.078,1.017c.133.488.4.928.538,1.414a1.775,1.775,0,0,1,.154.6c0,.938,0,1.876,0,2.814a16.285,16.285,0,0,1-3.3.063,4.129,4.129,0,0,1-1.375-.3c.328-1.052.663-2.1.992-3.152a1.9,1.9,0,0,0,.117-.462,2.979,2.979,0,0,0-.067-1.07,5.917,5.917,0,0,0-.362-.9,12.571,12.571,0,0,0-.15,1.6.456.456,0,0,1-.29.362c-.689.311-1.375.631-2.065.939a.443.443,0,0,1-.375-.8c.617-.286,1.238-.565,1.857-.85a13.051,13.051,0,0,1,.272-2.143.44.44,0,0,1,.156-.257A3.677,3.677,0,0,1,319.19,218.225Z" transform="translate(-301.334 -207.841)" fill="#fff"/>
    <path id="Path_10291" data-name="Path 10291" d="M455.02,220.09c.264.067.352.343.477.552.163.227.065.519.09.778a.528.528,0,0,1-.362-.352A3.829,3.829,0,0,1,455.02,220.09Z" transform="translate(-434.212 -209.775)" fill="#fff"/>
    <path id="Path_10292" data-name="Path 10292" d="M41.279,225.641a1.368,1.368,0,0,1,1.012-.211.891.891,0,0,1,.529.358c.141.225.263.46.4.687a.628.628,0,0,1,.1.226q.171,1,.344,1.995c-.145-.073-.289-.148-.437-.217-.2-.536-.387-1.077-.58-1.615a.779.779,0,0,0-.424-.515.72.72,0,0,0-.9.285.733.733,0,0,0-.051.652c.24.66.469,1.325.714,1.983a1.013,1.013,0,0,0,.59.489c-.019.4.054.789.042,1.185.594.641,1.2,1.274,1.794,1.913a.915.915,0,0,1,.232.474q.359,1.786.719,3.572a.855.855,0,0,1-1.67.368c-.238-1.136-.452-2.279-.7-3.414-.8-.863-1.611-1.715-2.414-2.575a1.719,1.719,0,0,1-.431-1,8.307,8.307,0,0,1-.011-1.983,8.777,8.777,0,0,1,.425-1.712A1.837,1.837,0,0,1,41.279,225.641Z" transform="translate(-38.719 -214.873)" fill="#fff"/>
    <path id="Path_10293" data-name="Path 10293" d="M117.469,229.493c.686-.113,1.37-.234,2.055-.353.253,1.482.511,2.963.765,4.445-1.426.248-2.852.49-4.278.739a.768.768,0,0,0,.284-.4.726.726,0,0,0-.344-.821c-.455-.238-.918-.459-1.373-.7-.126-.782-.272-1.561-.4-2.343.686-.112,1.369-.234,2.054-.352q.18,1.064.366,2.126c.045-.056.086-.116.125-.175l.249.12c.064-.068.131-.133.2-.2l.22.126c.062-.064.124-.129.184-.2.087.039.174.078.261.118C117.715,230.917,117.591,230.205,117.469,229.493Z" transform="translate(-109.348 -218.406)" fill="#fff"/>
    <path id="Path_10294" data-name="Path 10294" d="M68.147,247.837a.549.549,0,0,1,.7.323c.211.581.417,1.164.626,1.746.017.055.084.064.126.093q1.019.508,2.032,1.023a.547.547,0,0,1-.477.985q-1.185-.6-2.369-1.194a.717.717,0,0,1-.321-.473c-.215-.609-.439-1.217-.651-1.828A.546.546,0,0,1,68.147,247.837Z" transform="translate(-65.121 -236.192)" fill="#fff"/>
    <path id="Path_10295" data-name="Path 10295" d="M457.82,259.559a1.3,1.3,0,0,0,.436-.039c0,.388,0,.776,0,1.164C458.123,260.3,457.977,259.929,457.82,259.559Z" transform="translate(-436.88 -247.357)" fill="#fff"/>
    <path id="Path_10296" data-name="Path 10296" d="M129.23,336.25a5.379,5.379,0,0,0,.533.25c-.158.031-.316.059-.476.083C129.268,336.471,129.248,336.36,129.23,336.25Z" transform="translate(-123.688 -320.489)" fill="#fff"/>
    <path id="Path_10297" data-name="Path 10297" d="M12.9,356.64q.9.954,1.8,1.912c.012.293.03.586.038.88a.88.88,0,0,1-.189.582q-1,1.324-2.009,2.645a.857.857,0,0,1-1.538-.5.842.842,0,0,1,.174-.531c.612-.81,1.229-1.616,1.841-2.426C12.971,358.347,12.934,357.493,12.9,356.64Z" transform="translate(-10.996 -339.941)" fill="#fff"/>
    <path id="Path_10298" data-name="Path 10298" d="M394.709,388.45c.455.042.912.055,1.369.061,0,1.228,0,2.456,0,3.684a.683.683,0,0,1-1.367-.012C394.707,390.939,394.709,389.694,394.709,388.45Z" transform="translate(-376.725 -370.256)" fill="#fff"/>
    <path id="Path_10299" data-name="Path 10299" d="M428.71,388.51c.457,0,.915-.02,1.371-.06,0,1.248,0,2.5,0,3.743a.683.683,0,0,1-1.366-.008C428.708,390.961,428.713,389.735,428.71,388.51Z" transform="translate(-409.138 -370.256)" fill="#fff"/>
  </g>
</svg>
