<svg xmlns="http://www.w3.org/2000/svg" width="24" height="23.758" viewBox="0 0 24 23.758">
  <g id="Delivered_icon" data-name="Delivered icon" transform="translate(127.723 1180.726)">
    <path id="Subtraction_1" data-name="Subtraction 1" d="M10.552,17H1.594A1.6,1.6,0,0,1,0,15.406V7.438H17v2.913A8.281,8.281,0,0,0,10.552,17Zm6.4-10.625H9.031V0h4.695a1.589,1.589,0,0,1,1.511,1.089l1.68,5.04a.776.776,0,0,1,.029.163c0,.027.006.054.01.082Zm-8.988,0H.043c0-.027.007-.055.01-.082a.776.776,0,0,1,.029-.163l1.68-5.04A1.589,1.589,0,0,1,3.274,0H7.969V6.375Z" transform="translate(-127.723 -1180.726)" fill="#fff"/>
    <path id="Icon_awesome-check-circle" data-name="Icon awesome-check-circle" d="M12.658,6.61A6.048,6.048,0,1,1,6.61.562,6.048,6.048,0,0,1,12.658,6.61Zm-6.747,3.2L10.4,5.325a.39.39,0,0,0,0-.552l-.552-.552a.39.39,0,0,0-.552,0L5.635,7.881,3.926,6.173a.39.39,0,0,0-.552,0l-.552.552a.39.39,0,0,0,0,.552L5.359,9.812a.39.39,0,0,0,.552,0Z" transform="translate(-116.381 -1169.625)" fill="#fff"/>
  </g>
</svg>
