<svg xmlns="http://www.w3.org/2000/svg" width="22.402" height="24" viewBox="0 0 22.402 24">
  <g id="Dispatched_icon" data-name="Dispatched icon" transform="translate(645.259 1240.5)">
    <path id="Subtraction_3" data-name="Subtraction 3" d="M10.815,11.536A2.165,2.165,0,0,1,8.652,9.374H5.769a2.163,2.163,0,0,1-4.327,0h-.36A1.083,1.083,0,0,1,0,8.292V1.081A1.083,1.083,0,0,1,1.081,0h7.21A1.083,1.083,0,0,1,9.374,1.081V2.163h.994a1.077,1.077,0,0,1,.764.317l2.251,2.251A1.088,1.088,0,0,1,13.7,5.5V7.931h.36a.361.361,0,0,1,.36.36v.722a.361.361,0,0,1-.36.36H12.979A2.166,2.166,0,0,1,10.815,11.536Zm0-3.245A1.082,1.082,0,1,0,11.9,9.374,1.083,1.083,0,0,0,10.815,8.292Zm-7.21,0A1.082,1.082,0,1,0,4.686,9.374,1.083,1.083,0,0,0,3.605,8.292ZM9.374,3.245V5.769h3.245V5.5L10.367,3.245ZM2.6,3.212a.093.093,0,0,0-.066.028l-.424.424a.095.095,0,0,0,0,.136L3.445,5.134a.421.421,0,0,0,.279.136A.437.437,0,0,0,4,5.139l3.186-3.2a.1.1,0,0,0,0-.136l-.419-.432A.089.089,0,0,0,6.7,1.343a.087.087,0,0,0-.067.028L3.726,4.3,2.669,3.241A.094.094,0,0,0,2.6,3.212Z" transform="translate(-637.277 -1228.036)" fill="#fff"/>
    <path id="Subtraction_2" data-name="Subtraction 2" d="M6.293,15.1H2.454V7.551H0L8.18,0l8.18,7.551H13.906v3.931H10.067V10.067H6.293V15.1Z" transform="translate(-645.259 -1240.5)" fill="#fff"/>
  </g>
</svg>
