<svg id="early_retailer" data-name="early retailer" xmlns="http://www.w3.org/2000/svg" width="24" height="23.999" viewBox="0 0 24 23.999">
  <g id="_000000ff" data-name="#000000ff" transform="translate(0 0)">
    <path id="Path_10367" data-name="Path 10367" d="M19.076,16.263A1.547,1.547,0,0,1,19.964,16h16a1.534,1.534,0,0,1,.947.306,2.051,2.051,0,0,1,.642.963q1.19,3.352,2.382,6.7a2.05,2.05,0,0,1,.014.57,3.657,3.657,0,0,1-.61,2.047,1.868,1.868,0,0,1-1.346.658,3.409,3.409,0,0,1-2.169-.449,1.4,1.4,0,0,1-.662-1.067,1.422,1.422,0,0,1-.722,1.108,3.413,3.413,0,0,1-2.154.4,2.6,2.6,0,0,1-1.559-.688,1.34,1.34,0,0,1-.365-.817,1.405,1.405,0,0,1-.691,1.089,3.364,3.364,0,0,1-2.069.431,2.779,2.779,0,0,1-1.6-.626,1.329,1.329,0,0,1-.439-.893,1.428,1.428,0,0,1-.723,1.108,3.4,3.4,0,0,1-2.154.4,2.6,2.6,0,0,1-1.559-.688,1.316,1.316,0,0,1-.363-.817A1.407,1.407,0,0,1,20.1,26.8a3.423,3.423,0,0,1-2.168.448,1.87,1.87,0,0,1-1.345-.657,3.62,3.62,0,0,1-.608-2.006,1.664,1.664,0,0,1,.039-.689q1.186-3.331,2.369-6.664A1.955,1.955,0,0,1,19.076,16.263Z" transform="translate(-15.964 -16)" fill="#fff"/>
    <path id="Path_10368" data-name="Path 10368" d="M59.306,260.875a4.852,4.852,0,0,0,1.467-.5,5.217,5.217,0,0,0,4.795,0,5.238,5.238,0,0,0,3.193.526c.009,3.221,0,6.443,0,9.665a1.638,1.638,0,0,1-.374,1.078,1.61,1.61,0,0,1-1.272.578c-3.713,0-7.425,0-11.138,0-.009-2.68,0-5.361-.006-8.041q-2.394-.008-4.789,0c-.009,2.68,0,5.361-.006,8.042-.382.009-.764,0-1.145,0a2.783,2.783,0,0,1-.965-.088,1.622,1.622,0,0,1-1.082-1.519c0-3.239-.005-6.477,0-9.715a5.193,5.193,0,0,0,3.193-.529,4.933,4.933,0,0,0,2.144.578,5.036,5.036,0,0,0,2.651-.578,5.2,5.2,0,0,0,3.328.505m-.128,3.3q-.008,2.411,0,4.823,3.193.008,6.387,0,.007-2.411,0-4.823Q62.372,264.17,59.178,264.177Z" transform="translate(-46.376 -248.225)" fill="#fff"/>
  </g>
</svg>
