<svg xmlns="http://www.w3.org/2000/svg" width="18" height="12.462" viewBox="0 0 18 12.462">
  <g id="Icon_ionic-ios-mail" data-name="Icon ionic-ios-mail" transform="translate(-3.375 -7.875)">
    <path id="Path_10262" data-name="Path 10262" d="M21.228,10.34l-4.656,4.746a.084.084,0,0,0,0,.121L19.83,18.68a.563.563,0,0,1-.8.8l-3.245-3.46a.089.089,0,0,0-.125,0l-.792.805a3.483,3.483,0,0,1-2.484,1.048,3.552,3.552,0,0,1-2.536-1.078l-.762-.775a.089.089,0,0,0-.125,0L5.72,19.477a.563.563,0,0,1-.8-.8l3.258-3.473a.092.092,0,0,0,0-.121L3.522,10.34a.085.085,0,0,0-.147.061v9.5A1.389,1.389,0,0,0,4.76,21.283H19.99A1.389,1.389,0,0,0,21.375,19.9V10.4A.087.087,0,0,0,21.228,10.34Z" transform="translate(0 -0.946)" fill="#fff"/>
    <path id="Path_10263" data-name="Path 10263" d="M12.705,15.755a2.36,2.36,0,0,0,1.692-.706l6.791-6.873a1.365,1.365,0,0,0-.857-.3H5.083a1.356,1.356,0,0,0-.857.3l6.791,6.873A2.36,2.36,0,0,0,12.705,15.755Z" transform="translate(-0.33)" fill="#fff"/>
  </g>
</svg>
