<svg xmlns="http://www.w3.org/2000/svg" width="18" height="17.999" viewBox="0 0 18 17.999">
  <path id="Icon_ionic-ios-call" data-name="Icon ionic-ios-call" d="M21.97,18.6a15.119,15.119,0,0,0-3.158-2.113c-.947-.455-1.293-.445-1.963.037-.558.4-.918.778-1.56.637a9.308,9.308,0,0,1-3.135-2.319A9.241,9.241,0,0,1,9.834,11.7c-.136-.647.239-1,.637-1.56.483-.67.5-1.017.037-1.963A14.82,14.82,0,0,0,8.4,5.021c-.689-.689-.843-.539-1.223-.4a6.959,6.959,0,0,0-1.12.6,3.378,3.378,0,0,0-1.345,1.42c-.267.576-.576,1.649,1,4.452a24.839,24.839,0,0,0,4.367,5.824h0l0,0,0,0h0a24.936,24.936,0,0,0,5.824,4.367c2.8,1.574,3.875,1.265,4.452,1a3.321,3.321,0,0,0,1.42-1.345,6.959,6.959,0,0,0,.6-1.12C22.509,19.439,22.664,19.285,21.97,18.6Z" transform="translate(-4.49 -4.502)" fill="#fff"/>
</svg>
