<svg xmlns="http://www.w3.org/2000/svg" width="14" height="13.997" viewBox="0 0 14 13.997">
  <path id="Icon_awesome-upload" data-name="Icon awesome-upload" d="M8.093,10.5H5.906a.655.655,0,0,1-.656-.656V5.253h-2.4a.546.546,0,0,1-.386-.932L6.625.159a.53.53,0,0,1,.746,0l4.162,4.162a.546.546,0,0,1-.386.932H8.75V9.847A.655.655,0,0,1,8.093,10.5ZM14,10.284v3.062a.655.655,0,0,1-.656.656H.656A.655.655,0,0,1,0,13.346V10.284a.655.655,0,0,1,.656-.656H4.375v.219a1.532,1.532,0,0,0,1.531,1.531H8.093A1.532,1.532,0,0,0,9.625,9.847V9.628h3.719A.655.655,0,0,1,14,10.284Zm-3.39,2.406a.547.547,0,1,0-.547.547A.548.548,0,0,0,10.609,12.69Zm1.75,0a.547.547,0,1,0-.547.547A.548.548,0,0,0,12.359,12.69Z" transform="translate(0 -0.005)" fill="#303779"/>
</svg>
