<svg xmlns="http://www.w3.org/2000/svg" width="21.21" height="30" viewBox="0 0 21.21 30">
  <g id="invoice_returned" data-name="invoice returned" transform="translate(0 11)">
    <g id="_000000ff" data-name="#000000ff" transform="translate(0 -1.593)">
      <path id="Path_10324" data-name="Path 10324" d="M64.865,0h8.142q0,2.594,0,5.188a1.586,1.586,0,0,0,.074.65.971.971,0,0,0,.888.6c1.824,0,3.649,0,5.473,0q0,6.577,0,13.154a.977.977,0,0,1-.367.8,1.067,1.067,0,0,1-.5.207H64.864A.979.979,0,0,1,64,19.632Q64,10.3,64,.962A.978.978,0,0,1,64.865,0m1.922,2.593a.33.33,0,0,0-.215.34c.005.227-.012.456.01.682a.329.329,0,0,0,.348.246c1.061,0,2.123,0,3.184,0a.32.32,0,0,0,.317-.317q0-.325,0-.65a.32.32,0,0,0-.317-.318c-1.048,0-2.1,0-3.143,0a.593.593,0,0,0-.185.02m0,2.574a.32.32,0,0,0-.214.3c0,.229-.006.459,0,.687a.327.327,0,0,0,.354.281c1.061,0,2.122,0,3.184,0a.32.32,0,0,0,.317-.317q0-.325,0-.65a.32.32,0,0,0-.317-.317c-1.047,0-2.095,0-3.142,0a.6.6,0,0,0-.185.02m4.291,4.161c-.006.323,0,.647,0,.97a1.783,1.783,0,0,0-1.514.977,1.858,1.858,0,0,0-.031,1.61,1.79,1.79,0,0,0,1.088.969c.609.185,1.219.362,1.826.55a.533.533,0,0,1,.342.587.5.5,0,0,1-.46.451q-.586.005-1.172,0a1.116,1.116,0,0,1-.516-.163.323.323,0,0,0-.389.06c-.157.152-.319.3-.472.454a.319.319,0,0,0,.039.469,2.321,2.321,0,0,0,1.256.457c.012.327,0,.654.006.98a.32.32,0,0,0,.317.317q.325,0,.65,0a.32.32,0,0,0,.317-.317c.006-.324,0-.647,0-.971a1.781,1.781,0,0,0,1.471-.9,1.857,1.857,0,0,0,.073-1.689,1.788,1.788,0,0,0-1.087-.968c-.606-.187-1.214-.364-1.82-.549a.532.532,0,0,1-.349-.589.5.5,0,0,1,.461-.45c.377,0,.755,0,1.132,0a1.041,1.041,0,0,1,.53.152.33.33,0,0,0,.395-.03c.166-.155.333-.309.492-.472a.319.319,0,0,0-.039-.469,2.3,2.3,0,0,0-1.255-.457c-.014-.327,0-.654-.006-.981a.321.321,0,0,0-.317-.317q-.325,0-.65,0A.319.319,0,0,0,71.078,9.329Z" transform="translate(-63.998)" fill="#fff"/>
      <path id="Path_10325" data-name="Path 10325" d="M320,0h.33a1,1,0,0,1,.566.27Q322.76,2.134,324.623,4a1.1,1.1,0,0,1,.289.411,1.468,1.468,0,0,1,.059.561q-2.486,0-4.974,0Q319.995,2.487,320,0Z" transform="translate(-309.527)" fill="#fff"/>
    </g>
    <path id="Path_10384" data-name="Path 10384" d="M29.02,0h.08a.259.259,0,0,1,.188.242c.007.7,0,1.4,0,2.1.784,0,1.568-.013,2.353.006a17.585,17.585,0,0,1,4.8.647,11.9,11.9,0,0,1,3.813,1.981,6.062,6.062,0,0,1,1.428,1.588,6.813,6.813,0,0,1,.967,2.886,7.769,7.769,0,0,1-.358,3.267,6.261,6.261,0,0,1-2.12,3.061.871.871,0,0,1-.533.241.426.426,0,0,1-.417-.451c.019-.2.2-.322.333-.446a4.247,4.247,0,0,0,1.47-2.853,4.687,4.687,0,0,0-.85-2.951,6.8,6.8,0,0,0-3.136-2.45,16.99,16.99,0,0,0-4.391-1.122,31.5,31.5,0,0,0-3.353-.128c0,.688,0,1.377,0,2.066a.239.239,0,0,1-.26.26.875.875,0,0,1-.3-.192c-1.523-1.2-3.053-2.388-4.575-3.587a.24.24,0,0,1,.009-.393L28.67.241A1.584,1.584,0,0,1,29.02,0Z" transform="translate(-21.478 -11)" fill="#fff"/>
  </g>
</svg>
