<svg id="Invoice_processed" data-name="Invoice processed" xmlns="http://www.w3.org/2000/svg" width="24" height="24" viewBox="0 0 24 24">
  <g id="_000000ff" data-name="#000000ff">
    <path id="Path_10362" data-name="Path 10362" d="M108.636,0h.165a12,12,0,0,1,11.94,11.789v.244a12,12,0,0,1-3.251,8.152c.332-.019.663-.05,1-.063a.372.372,0,0,1,.371.31.375.375,0,0,1-.342.434c-.62.045-1.241.085-1.862.125a.378.378,0,0,1-.417-.417c.04-.618.08-1.237.124-1.855a.374.374,0,0,1,.746.023c-.007.268-.036.535-.049.8a11.25,11.25,0,0,0-15.15-16.5,1.183,1.183,0,0,0-.447-.6A12.03,12.03,0,0,1,108.636,0Z" transform="translate(-96.741)" fill="#fff"/>
    <path id="Path_10363" data-name="Path 10363" d="M2.232,64.116q.926-.065,1.853-.124a.378.378,0,0,1,.42.416q-.059.927-.124,1.854a.375.375,0,0,1-.392.349.371.371,0,0,1-.354-.369c.007-.269.035-.538.05-.807a11.25,11.25,0,0,0,15.149,16.5,1.223,1.223,0,0,0,.446.6,12.029,12.029,0,0,1-7.172,2.44H11.94A12.007,12.007,0,0,1,0,73.244v-.39a12.126,12.126,0,0,1,.315-2.581A12,12,0,0,1,3.247,64.8c-.316.019-.632.045-.948.062a.374.374,0,1,1-.067-.745Z" transform="translate(0 -60.983)" fill="#fff"/>
    <g id="processed1" transform="translate(4.742 4.245)">
      <g id="_000000ff-2" data-name="#000000ff" transform="translate(0 0)">
        <path id="Path_10352" data-name="Path 10352" d="M174.83,37.921l2.829-1.361q3.421,1.652,6.844,3.3-1.412.682-2.825,1.361Q178.255,39.569,174.83,37.921Z" transform="translate(-170.348 -36.56)" fill="#fff"/>
        <path id="Path_10353" data-name="Path 10353" d="M59.22,93.9c.941-.448,1.88-.9,2.82-1.351.844.4,1.68.808,2.521,1.21,1.443.692,2.884,1.39,4.328,2.08q-1.408.688-2.825,1.356Q62.641,95.552,59.22,93.9Z" transform="translate(-58.759 -90.603)" fill="#fff"/>
        <path id="Path_10354" data-name="Path 10354" d="M45.981,148.491c0-.367,0-.734.01-1.1,2.314,1.12,4.633,2.23,6.946,3.352,0,2.631,0,5.261,0,7.891-2.316-1.122-4.638-2.233-6.954-3.355Q45.983,151.885,45.981,148.491Z" transform="translate(-45.98 -143.535)" fill="#fff"/>
        <path id="Path_10355" data-name="Path 10355" d="M270,148.667q1.479-.714,2.958-1.427c0,2.635,0,5.269-.009,7.9-2.318,1.11-4.631,2.23-6.948,3.341q0-3.949.005-7.9c.985-.469,1.968-.944,2.951-1.416,0,.6,0,1.19,0,1.785a.524.524,0,0,0,.575.509.532.532,0,0,0,.467-.509C270,150.193,270,149.43,270,148.667Z" transform="translate(-258.347 -143.39)" fill="#fff"/>
      </g>
    </g>
  </g>
</svg>
