<svg id="key" xmlns="http://www.w3.org/2000/svg" width="24" height="23.852" viewBox="0 0 24 23.852">
  <g id="_0e2238ff" data-name="#0e2238ff" transform="translate(0 0)">
    <path id="Path_10330" data-name="Path 10330" d="M3,1.653a1.014,1.014,0,0,1,.512-.073q8.556,0,17.113,0a.543.543,0,0,1,.536.577c0,.856,0,1.713,0,2.569q1.351,1.759,2.7,3.518A.591.591,0,0,1,24,8.561v.114a3.3,3.3,0,0,1-2.993,3.137,3.478,3.478,0,0,1-2.858-1.06c-.107-.111-.21-.266-.383-.263a.4.4,0,0,0-.324.179,3.5,3.5,0,0,1-5.07.144c-.106-.106-.207-.25-.372-.255a.432.432,0,0,0-.345.188,3.474,3.474,0,0,1-2.561,1.082,3.433,3.433,0,0,1-2.51-1.084.422.422,0,0,0-.347-.187c-.19.011-.29.193-.418.306a3.558,3.558,0,0,1-4.3.441A3.289,3.289,0,0,1,0,8.663v-.12a1.1,1.1,0,0,1,.279-.48l2.458-3.2c0-.914,0-1.829,0-2.743A.533.533,0,0,1,3,1.653M3.81,4.446H20.092q0-.9,0-1.792H3.81Q3.81,3.55,3.81,4.446Z" transform="translate(0 -1.58)" fill="#fff"/>
    <path id="Path_10331" data-name="Path 10331" d="M45.067,223.583a4.633,4.633,0,0,0,3-1.033,4.588,4.588,0,0,0,2.538,1.02,4.755,4.755,0,0,0,2.042-.3q0,6.063,0,12.125a.538.538,0,0,1-.539.539c-.773,0-1.547,0-2.321,0q0-5.038,0-10.077H42.714q0,5.038,0,10.077-5.042,0-10.084,0a1.032,1.032,0,0,1-.541-.077.548.548,0,0,1-.264-.5q0-6.09,0-12.179a4.614,4.614,0,0,0,4.731-.587,4.649,4.649,0,0,0,5.73,0,4.627,4.627,0,0,0,2.781.987M35.1,225.861q0,2.508,0,5.017h4.73q0-2.509,0-5.017Z" transform="translate(-30.344 -212.087)" fill="#fff"/>
    <path id="Path_10332" data-name="Path 10332" d="M289.273,379.833h1.072q0,.994,0,1.987h-1.072Q289.272,380.827,289.273,379.833Z" transform="translate(-275.708 -362.089)" fill="#fff"/>
  </g>
</svg>
