<svg xmlns="http://www.w3.org/2000/svg" width="22.588" height="24" viewBox="0 0 22.588 24">
  <g id="kyc" transform="translate(-11.206 -16.912)">
    <g id="_333333ff" data-name="#333333ff" transform="translate(11.206 16.912)">
      <path id="Path_10340" data-name="Path 10340" d="M198.85,147.147a3.966,3.966,0,0,1,2.8-.546,3.251,3.251,0,0,1,1.665.781,2.453,2.453,0,0,1,.575,1.272.98.98,0,0,1,.94.342,3.292,3.292,0,0,1,.414,1.617,3.338,3.338,0,0,1-.722,2.3.59.59,0,0,1,.569.552,4.7,4.7,0,0,1-.406,2.071.918.918,0,0,1-.668.46,4.242,4.242,0,0,1-.22,1.449,2.64,2.64,0,0,1-.562.739c0,.475.006.95,0,1.424a.772.772,0,0,1-.323.605q-1.113.855-2.227,1.709-1.119-.858-2.236-1.717a.753.753,0,0,1-.316-.6c-.007-.412,0-.824,0-1.235-.012-.091.029-.209-.053-.277a2.278,2.278,0,0,1-.477-.634,4.18,4.18,0,0,1-.229-1.5.9.9,0,0,1-.532-.339,3.726,3.726,0,0,1-.293-.878,4.506,4.506,0,0,1-.157-1.341.518.518,0,0,1,.528-.485,5.142,5.142,0,0,1-.8-2.833,10.434,10.434,0,0,1,.192-1.81.753.753,0,0,0,.859.059C197.759,147.986,198.253,147.493,198.85,147.147Z" transform="translate(-189.583 -146.535)" fill="#fff"/>
      <path id="Path_10341" data-name="Path 10341" d="M102.771,352.487a6.607,6.607,0,0,0,2.106-1.377c.22,1.125.464,2.249.577,3.391.05.455.072.913.108,1.37a4.246,4.246,0,0,1,1.247-1.769c.192.308.391.613.556.938a.822.822,0,0,1,.118.491c-.062.372-.167.737-.215,1.112-.235,1.647-.359,3.306-.525,4.961H97.09c.13-1.112.258-2.224.425-3.331a12.7,12.7,0,0,1,.747-3,3.568,3.568,0,0,1,1.814-1.887C100.949,353.014,101.878,352.8,102.771,352.487Z" transform="translate(-97.09 -337.603)" fill="#fff"/>
      <path id="Path_10342" data-name="Path 10342" d="M284.263,351.11a6.454,6.454,0,0,0,2.234,1.422c.836.279,1.7.49,2.512.827a3.4,3.4,0,0,1,1.358,1.045,6.141,6.141,0,0,1,1.009,2.5c.327,1.55.483,3.128.673,4.7h-9.653c-.187-1.785-.3-3.58-.593-5.352-.04-.355-.248-.721-.092-1.072a8.649,8.649,0,0,1,.623-1.081,4.086,4.086,0,0,1,.585.588,6.846,6.846,0,0,1,.659,1.185c.046-.61.078-1.22.16-1.826C283.862,353.058,284.07,352.085,284.263,351.11Z" transform="translate(-269.46 -337.603)" fill="#fff"/>
    </g>
  </g>
</svg>
