<svg id="New_Orders_icon" data-name="New Orders icon" xmlns="http://www.w3.org/2000/svg" width="24" height="24" viewBox="0 0 24 24">
  <path id="Path_10109" data-name="Path 10109" d="M141.61,0h.056a1.5,1.5,0,0,1,.555.21q2.514,1.28,5.028,2.559-2.8,1.4-5.609,2.8-2.806-1.4-5.61-2.8,2.513-1.281,5.027-2.559A1.517,1.517,0,0,1,141.61,0Z" transform="translate(-129.639)" fill="#fff"/>
  <path id="Path_10110" data-name="Path 10110" d="M120.995,85.29q2.805,1.4,5.61,2.8,0,2.722,0,5.445-2.805-1.4-5.61-2.8Q120.992,88.013,120.995,85.29Z" transform="translate(-115.318 -81.287)" fill="#fff"/>
  <path id="Path_10111" data-name="Path 10111" d="M271,88.094q2.806-1.4,5.61-2.8,0,2.723,0,5.445-2.806,1.4-5.61,2.8Q271,90.816,271,88.094Z" transform="translate(-258.282 -81.287)" fill="#fff"/>
  <path id="Path_10112" data-name="Path 10112" d="M16.33,227.964c1.307-.648,2.609-1.307,3.917-1.954q2.731,1.369,5.465,2.732c.029.031.136.029.107.089q-2,1-4.008,2c-1.868-.929-3.73-1.872-5.6-2.795A.715.715,0,0,1,16.33,227.964Z" transform="translate(-15.452 -215.409)" fill="#fff"/>
  <path id="Path_10113" data-name="Path 10113" d="M290.211,228.8c1.862-.929,3.72-1.866,5.586-2.789,1.341.679,2.691,1.343,4.033,2.022q-2.805,1.4-5.609,2.8l-4.011-2C290.21,228.823,290.211,228.807,290.211,228.8Z" transform="translate(-276.58 -215.409)" fill="#fff"/>
  <path id="Path_10114" data-name="Path 10114" d="M0,295.24q2.8,1.408,5.61,2.806,0,3.664,0,7.329h0Q3,303.912.4,302.453a.742.742,0,0,1-.4-.609Z" transform="translate(0 -281.375)" fill="#fff"/>
  <path id="Path_10115" data-name="Path 10115" d="M391.993,298.046q2.8-1.4,5.61-2.806v6.6a.739.739,0,0,1-.4.609c-1.735.978-3.476,1.944-5.21,2.924h0Q391.989,301.71,391.993,298.046Z" transform="translate(-373.603 -281.375)" fill="#fff"/>
  <path id="Path_10116" data-name="Path 10116" d="M151,312.393l4.207-2.1q0,3.506,0,7.012c-1.4.808-2.8,1.607-4.2,2.419h0Q150.992,316.057,151,312.393Z" transform="translate(-143.914 -295.721)" fill="#fff"/>
  <path id="Path_10117" data-name="Path 10117" d="M270.991,310.29q2.1,1.05,4.207,2.1,0,3.664,0,7.329h0q-2.1-1.211-4.208-2.42Q270.991,313.8,270.991,310.29Z" transform="translate(-258.28 -295.721)" fill="#fff"/>
</svg>
