<svg id="otp" xmlns="http://www.w3.org/2000/svg" width="24" height="24" viewBox="0 0 24 24">
  <g id="_000000ff" data-name="#000000ff" transform="translate(0 0)">
    <path id="Path_10350" data-name="Path 10350" d="M31.083,32.073A1.679,1.679,0,0,1,32.623,31q4.56,0,9.121,0a1.675,1.675,0,0,1,1.705,1.654c0,.888,0,1.777,0,2.665q5.174,0,10.348,0a1.2,1.2,0,0,1,1.17,1.172q0,3.627,0,7.254a1.206,1.206,0,0,1-1.169,1.17q-5.174.006-10.348,0,0,4.215,0,8.43a1.683,1.683,0,0,1-1.65,1.648q-4.374.006-8.748,0a2.594,2.594,0,0,1-1-.111,1.687,1.687,0,0,1-1.077-1.6q0-10.106,0-20.213a2.566,2.566,0,0,1,.111-1m4.765-.035A.6.6,0,0,0,36,33.213q1.208.006,2.416,0a.6.6,0,1,0-.029-1.2c-.748,0-1.5,0-2.242,0a1.169,1.169,0,0,0-.3.026m-3.82,2.2q0,8.76,0,17.52H42.4v-6.84h-.864L39.21,47.237a.6.6,0,0,1-.559.187.593.593,0,0,1-.478-.585c0-.642,0-1.283,0-1.924-.747,0-1.495.005-2.242,0a1.194,1.194,0,0,1-1.117-1.173q0-3.626,0-7.253a1.193,1.193,0,0,1,1.17-1.169q3.206,0,6.413,0v-1.08H32.028m6.509,3.9c-.013.311,0,.622-.005.933-.265-.15-.526-.309-.794-.454a.6.6,0,0,0-.6,1.032c.252.156.514.295.767.447l-.011.038c-.25.152-.511.285-.759.44a.6.6,0,0,0,.573,1.045c.281-.146.548-.315.824-.469,0,.311-.007.623.005.934a.6.6,0,0,0,1.189,0c.015-.313,0-.626.007-.939.265.149.523.309.79.454a.6.6,0,0,0,.606-1.03c-.259-.164-.531-.305-.794-.461.263-.156.534-.3.793-.464a.6.6,0,0,0-.6-1.031c-.267.147-.527.305-.793.454,0-.31.008-.621-.005-.931a.6.6,0,0,0-1.189,0m5.76,0c-.013.31,0,.621-.005.932-.266-.151-.528-.311-.8-.456a.6.6,0,0,0-.593,1.037c.261.159.53.306.793.461-.265.156-.536.3-.8.461a.6.6,0,0,0,.571,1.046c.281-.145.549-.315.825-.47,0,.313-.008.626.006.938a.6.6,0,0,0,1.189,0c.015-.313,0-.627.007-.94.264.149.522.308.788.453a.6.6,0,0,0,.605-1.031c-.255-.162-.526-.3-.783-.458.256-.166.53-.3.786-.467a.6.6,0,0,0-.6-1.03c-.267.147-.527.3-.792.454,0-.311.009-.623-.006-.935a.6.6,0,0,0-1.189,0m5.76,0c-.013.31,0,.622-.005.933-.266-.151-.527-.311-.8-.456a.6.6,0,0,0-.6,1.033c.252.156.513.295.767.447l-.009.038c-.26.161-.538.3-.794.464a.6.6,0,0,0-.026.926.6.6,0,0,0,.665.08c.267-.146.527-.3.791-.454,0,.312-.007.624.006.936a.6.6,0,0,0,1.189,0c.014-.312,0-.624.007-.936.263.149.522.308.787.453a.6.6,0,0,0,.608-1.029c-.259-.163-.531-.3-.794-.461.273-.164.558-.31.824-.486a.6.6,0,0,0-.666-.993c-.254.145-.506.293-.76.438,0-.311.008-.623-.006-.934a.6.6,0,0,0-1.189,0M36,52.774a.6.6,0,1,0,.036,1.2q1.176,0,2.353,0a.6.6,0,1,0,.035-1.2Q37.209,52.769,36,52.774Z" transform="translate(-30.971 -30.996)" fill="#fff"/>
  </g>
</svg>
