<svg xmlns="http://www.w3.org/2000/svg" width="22.793" height="24" viewBox="0 0 22.793 24">
  <g id="pickup" transform="translate(-74.77 -65.548)">
    <path id="Path_10382" data-name="Path 10382" d="M199.959,65.626A4.14,4.14,0,0,1,204.544,68a4.478,4.478,0,0,1-.187,3.895,13.88,13.88,0,0,1-1.6,2.166,9.591,9.591,0,0,0-1.908,3.252c.008.1-.173.1-.169,0a8.482,8.482,0,0,0-1.253-2.411c-.706-.991-1.6-1.845-2.206-2.907a4.588,4.588,0,0,1-.506-3.186,4.192,4.192,0,0,1,3.247-3.185m.3,2.488a1.526,1.526,0,1,0,1.836.771A1.535,1.535,0,0,0,200.258,68.114Z" transform="translate(-114.502)" fill="#fff"/>
    <path id="Path_10383" data-name="Path 10383" d="M90.1,200.191q2.162,1.192,4.322,2.389c1.051,1.025,2.093,2.063,3.141,3.092-1.019.571-2.044,1.133-3.065,1.7-.006,1.386,0,2.772,0,4.158q-4.164,2.3-8.328,4.608-4.164-2.307-8.33-4.611c0-1.394,0-2.788,0-4.182-1.017-.577-2.044-1.137-3.067-1.7l2.886-2.817a1.506,1.506,0,0,1,.285-.263q2.145-1.186,4.291-2.372c.278.385.558.767.835,1.152-1.258.69-2.522,1.37-3.78,2.058l6.357,3.5c.226.142.5.057.753.08a1.053,1.053,0,0,0,.605-.221q3.026-1.681,6.055-3.359c-1.265-.685-2.528-1.375-3.794-2.059.277-.386.557-.769.835-1.153m-3.254,7.457q.006,3.265,0,6.529,3.127-1.744,6.256-3.483c0-.849,0-1.7,0-2.546q-1.844,1.022-3.687,2.044c-.855-.851-1.72-1.69-2.572-2.543m-3.929,2.511c-1.23-.684-2.463-1.361-3.69-2.05.005.86,0,1.719,0,2.579q3.112,1.736,6.227,3.469-.006-3.252,0-6.5C84.611,208.491,83.761,209.322,82.916,210.158Z" transform="translate(0 -126.592)" fill="#fff"/>
  </g>
</svg>
