<svg xmlns="http://www.w3.org/2000/svg" width="24" height="22.747" viewBox="0 0 24 22.747">
  <g id="Processed_icon" data-name="Processed icon" transform="translate(-6.721 -12.222)">
    <path id="Path_10223" data-name="Path 10223" d="M7.1,12.287c.941-.127,1.9-.023,2.841-.061.389.034.975-.086,1.141.4.182,1.155.2,2.327.324,3.489q9.175,0,18.353,0c.317.023.788-.023.9.374.171.321-.079.67-.131.994-1.065,3.337-2.1,6.685-3.159,10.022A3.033,3.033,0,0,1,24.353,29.6q-4.961.007-9.924,0a3.036,3.036,0,0,1-2.639-1.37,5.8,5.8,0,0,1-.615-2.669q-.591-6.058-1.2-12.118c-.952-.032-1.911.059-2.861-.043A.593.593,0,0,1,7.1,12.287m11.468,6.789a4,4,0,1,0,5.3,3.491A4.031,4.031,0,0,0,18.567,19.076Z" fill="#fff"/>
    <path id="Path_10224" data-name="Path 10224" d="M62.522,52.234c.027-.591-.155-1.719.754-1.646.67.221.411,1.048.445,1.579a6.59,6.59,0,0,1,1.1.752c.358.5-.33,1.188-.816.79C63.434,53.342,62.438,53.076,62.522,52.234Z" transform="translate(-43.21 -29.7)" fill="#fff"/>
    <path id="Path_10225" data-name="Path 10225" d="M35.243,93.76a2.163,2.163,0,1,1-1.351,1.478A2.175,2.175,0,0,1,35.243,93.76Z" transform="translate(-20.966 -62.995)" fill="#fff"/>
    <path id="Path_10226" data-name="Path 10226" d="M70.858,93.8a2.162,2.162,0,1,1-.52,3.632A2.175,2.175,0,0,1,70.858,93.8Z" transform="translate(-48.651 -62.979)" fill="#fff"/>
  </g>
</svg>
