<svg xmlns="http://www.w3.org/2000/svg" width="16" height="16" viewBox="0 0 16 16">
  <g id="Reports_icon" data-name="Reports icon" transform="translate(85 -288.212)" opacity="0.9">
    <rect id="Rectangle_4198" data-name="Rectangle 4198" width="16" height="16" transform="translate(-85 288.212)" fill="none"/>
    <path id="Path_66" data-name="Path 66" d="M64.3,16.3a1.072,1.072,0,0,1,.786-.312h6.365q0,1.966,0,3.931a1.9,1.9,0,0,0,.066.7,1.062,1.062,0,0,0,.967.7c1.433,0,2.866,0,4.3,0q0,4.65,0,9.3a1.741,1.741,0,0,1-.077.694,1.075,1.075,0,0,1-.988.67q-5.334,0-10.668,0a1.074,1.074,0,0,1-1.065-1.066q0-6.916,0-13.831A1.072,1.072,0,0,1,64.3,16.3m2.2,3.971a.546.546,0,0,0-.307.806.506.506,0,0,0,.459.242c1.056,0,2.112,0,3.168,0A.534.534,0,0,0,70.3,21.1a.579.579,0,0,0-.077-.718.534.534,0,0,0-.368-.129H66.886a1.9,1.9,0,0,0-.385.017m.089,3.186a.5.5,0,0,0-.367.195.6.6,0,0,0-.029.626.513.513,0,0,0,.458.242h7.4a.663.663,0,0,0,.357-.073.555.555,0,0,0,0-.92.6.6,0,0,0-.323-.074c-2.5,0-5,0-7.5,0M66.5,26.673a.547.547,0,0,0-.306.806.516.516,0,0,0,.459.243H73.92a.87.87,0,0,0,.512-.088.567.567,0,0,0,.17-.693.507.507,0,0,0-.481-.286h-7.4A1.034,1.034,0,0,0,66.5,26.673Z" transform="translate(-146.987 272.222)" fill="#fff"/>
    <path id="Path_67" data-name="Path 67" d="M319.989,15.953a.964.964,0,0,1,.711.283c.967.976,1.942,1.944,2.912,2.917a2.792,2.792,0,0,1,.525.631.955.955,0,0,1,.092.408q-2.12,0-4.24,0Q319.989,18.073,319.989,15.953Z" transform="translate(-394.428 272.258)" fill="#fff"/>
  </g>
</svg>
