<svg id="Retailers" xmlns="http://www.w3.org/2000/svg" width="23.569" height="24" viewBox="0 0 23.569 24">
  <g id="_000000ff" data-name="#000000ff" transform="translate(0 0)">
    <path id="Path_10268" data-name="Path 10268" d="M200.27,47.974a2.83,2.83,0,0,1,.606-.027c1.669,0,3.339,0,5.007,0a.462.462,0,0,1,.451.505c0,1.8,0,3.606,0,5.41a.454.454,0,0,1-.449.449c-1.8,0-3.606,0-5.41,0a.461.461,0,0,1-.5-.451c-.006-1.8,0-3.606,0-5.409a.468.468,0,0,1,.3-.481M202.7,49.71c-.016.322,0,.645-.006.967-.3,0-.61,0-.914,0a.453.453,0,0,0,0,.906c.3.007.61,0,.914,0,0,.3-.005.61,0,.914a.453.453,0,0,0,.9.053c.016-.322,0-.645.006-.967.3,0,.609,0,.914,0a.453.453,0,0,0,.053-.9c-.322-.016-.645,0-.967-.006,0-.305,0-.61,0-.915a.452.452,0,0,0-.9-.053Z" transform="translate(-191.365 -47.945)" fill="#fff"/>
    <path id="Path_10269" data-name="Path 10269" d="M50.532,96.26a.452.452,0,0,1,.407-.266c1.51,0,3.021,0,4.532,0q0,1.821,0,3.642a.918.918,0,0,0,.9.906q3.174,0,6.348,0a.914.914,0,0,0,.9-.9c0-1.215,0-2.43,0-3.644,1.51,0,3.021,0,4.531,0a.471.471,0,0,1,.427.3q1.205,2.428,2.413,4.854a4.855,4.855,0,0,1,.338.751c-5.758.01-11.515,0-17.273,0-2.1,0-4.2.005-6.3,0a1.907,1.907,0,0,1,.112-.3Q49.2,98.935,50.532,96.26Z" transform="translate(-47.76 -93.261)" fill="#fff"/>
    <path id="Path_10270" data-name="Path 10270" d="M47.96,215.993q11.774,0,23.548,0a2.781,2.781,0,0,1-.772,1.9,2.71,2.71,0,0,1-2.6.747,2.783,2.783,0,0,1-1.616-1.131,2.721,2.721,0,0,1-4.527,0,2.721,2.721,0,0,1-4.527,0,2.721,2.721,0,0,1-4.527,0,2.787,2.787,0,0,1-1.525,1.108A2.708,2.708,0,0,1,49,218.135,2.761,2.761,0,0,1,47.96,215.993Z" transform="translate(-47.949 -206.488)" fill="#fff"/>
    <path id="Path_10271" data-name="Path 10271" d="M87.961,266.706a3.661,3.661,0,0,0,2.713-.776,3.6,3.6,0,0,0,4.522,0,3.606,3.606,0,0,0,4.523,0,3.6,3.6,0,0,0,4.522,0,3.662,3.662,0,0,0,2.713.776c0,3.5,0,6.994,0,10.491a.462.462,0,0,1-.5.45h-10.8q0-3.385,0-6.771a.48.48,0,0,0-.194-.424.684.684,0,0,0-.427-.084c-1.151,0-2.3,0-3.454,0a.451.451,0,0,0-.447.449c0,2.275,0,4.551,0,6.827-.906,0-1.812,0-2.718,0a.461.461,0,0,1-.448-.5q0-5.217,0-10.433M99.117,270.4a.468.468,0,0,0-.3.48c0,1.2,0,2.394,0,3.591a.452.452,0,0,0,.446.449q2.265,0,4.53,0a.454.454,0,0,0,.447-.449q0-1.823,0-3.648a.454.454,0,0,0-.447-.449c-1.472,0-2.944,0-4.416,0A.814.814,0,0,0,99.117,270.4Z" transform="translate(-85.673 -253.649)" fill="#fff"/>
  </g>
</svg>
