<svg xmlns="http://www.w3.org/2000/svg" width="21.745" height="24" viewBox="0 0 21.745 24">
  <g id="Returns_icon" data-name="Returns icon" transform="translate(-24.052)">
    <g id="_323232ff" data-name="#323232ff" transform="translate(24.052)">
      <path id="Path_10219" data-name="Path 10219" d="M29.849,0h.093a.3.3,0,0,1,.22.282c.008.817,0,1.634,0,2.451.915,0,1.83-.015,2.745.008a20.542,20.542,0,0,1,5.595.754A13.889,13.889,0,0,1,42.954,5.8,7.067,7.067,0,0,1,44.62,7.653a7.934,7.934,0,0,1,1.128,3.364,9.044,9.044,0,0,1-.417,3.808,7.3,7.3,0,0,1-2.474,3.567,1.017,1.017,0,0,1-.623.281.5.5,0,0,1-.487-.526c.022-.234.231-.375.389-.52A4.948,4.948,0,0,0,43.852,14.3a5.457,5.457,0,0,0-.992-3.439A7.93,7.93,0,0,0,39.2,8.007,19.845,19.845,0,0,0,34.077,6.7a36.8,36.8,0,0,0-3.912-.149c0,.8,0,1.605,0,2.408a.278.278,0,0,1-.3.3,1.022,1.022,0,0,1-.356-.224c-1.777-1.4-3.562-2.783-5.338-4.18a.279.279,0,0,1,.01-.458L29.44.281A1.849,1.849,0,0,1,29.849,0Z" transform="translate(-24.052)" fill="#fff"/>
      <path id="Path_10220" data-name="Path 10220" d="M76.619,229.277a.594.594,0,0,1,.423.009l5.906,2.092c.1.041.243.069.272.2a.234.234,0,0,1-.186.288l-6.218,2.2c-2.089-.744-4.181-1.478-6.268-2.224a.219.219,0,0,1,.019-.412Q73.592,230.347,76.619,229.277Z" transform="translate(-68.241 -218.492)" fill="#fff"/>
      <path id="Path_10221" data-name="Path 10221" d="M49.183,303.167a.234.234,0,0,1,.321-.1q3.253,1.151,6.5,2.305,0,3.586,0,7.171a.254.254,0,0,1-.18.278h-.064c-2.071-.726-4.136-1.466-6.206-2.195a.565.565,0,0,1-.4-.565q0-3.231,0-6.462A1.812,1.812,0,0,1,49.183,303.167Z" transform="translate(-47.983 -288.825)" fill="#fff"/>
      <path id="Path_10222" data-name="Path 10222" d="M225.308,303.211a.265.265,0,0,1,.252.007c.1.058.094.183.1.282q0,3.348,0,6.7a.57.57,0,0,1-.415.573c-2.064.727-4.123,1.468-6.19,2.187h-.086c-.205-.091-.152-.334-.159-.515,0-2.311,0-4.622,0-6.934Q222.058,304.362,225.308,303.211Z" transform="translate(-209.669 -288.957)" fill="#fff"/>
    </g>
  </g>
</svg>
