<svg xmlns="http://www.w3.org/2000/svg" width="29.185" height="24" viewBox="0 0 29.185 24">
  <g id="Reverify" transform="translate(-11.206 -16.912)">
    <g id="_333333ff" data-name="#333333ff" transform="translate(11.206 16.912)">
      <path id="Path_10340" data-name="Path 10340" d="M198.85,147.147a3.966,3.966,0,0,1,2.8-.546,3.251,3.251,0,0,1,1.665.781,2.453,2.453,0,0,1,.575,1.272.98.98,0,0,1,.94.342,3.292,3.292,0,0,1,.414,1.617,3.338,3.338,0,0,1-.722,2.3.59.59,0,0,1,.569.552,4.7,4.7,0,0,1-.406,2.071.918.918,0,0,1-.668.46,4.242,4.242,0,0,1-.22,1.449,2.64,2.64,0,0,1-.562.739c0,.475.006.95,0,1.424a.772.772,0,0,1-.323.605q-1.113.855-2.227,1.709-1.119-.858-2.236-1.717a.753.753,0,0,1-.316-.6c-.007-.412,0-.824,0-1.235-.012-.091.029-.209-.053-.277a2.278,2.278,0,0,1-.477-.634,4.18,4.18,0,0,1-.229-1.5.9.9,0,0,1-.532-.339,3.726,3.726,0,0,1-.293-.878,4.506,4.506,0,0,1-.157-1.341.518.518,0,0,1,.528-.485,5.142,5.142,0,0,1-.8-2.833,10.434,10.434,0,0,1,.192-1.81.753.753,0,0,0,.859.059C197.759,147.986,198.253,147.493,198.85,147.147Z" transform="translate(-189.583 -146.535)" fill="#fff"/>
      <path id="Path_10341" data-name="Path 10341" d="M102.771,352.487a6.607,6.607,0,0,0,2.106-1.377c.22,1.125.464,2.249.577,3.391.05.455.072.913.108,1.37a4.246,4.246,0,0,1,1.247-1.769c.192.308.391.613.556.938a.822.822,0,0,1,.118.491c-.062.372-.167.737-.215,1.112-.235,1.647-.359,3.306-.525,4.961H97.09c.13-1.112.258-2.224.425-3.331a12.7,12.7,0,0,1,.747-3,3.568,3.568,0,0,1,1.814-1.887C100.949,353.014,101.878,352.8,102.771,352.487Z" transform="translate(-97.09 -337.603)" fill="#fff"/>
      <path id="Path_10342" data-name="Path 10342" d="M284.263,351.11a6.454,6.454,0,0,0,2.234,1.422c.836.279,1.7.49,2.512.827a3.4,3.4,0,0,1,1.358,1.045,6.141,6.141,0,0,1,1.009,2.5c.327,1.55.483,3.128.673,4.7h-9.653c-.187-1.785-.3-3.58-.593-5.352-.04-.355-.248-.721-.092-1.072a8.649,8.649,0,0,1,.623-1.081,4.086,4.086,0,0,1,.585.588,6.846,6.846,0,0,1,.659,1.185c.046-.61.078-1.22.16-1.826C283.862,353.058,284.07,352.085,284.263,351.11Z" transform="translate(-269.46 -337.603)" fill="#fff"/>
    </g>
    <g id="verify" transform="translate(28.891 19.866)">
      <g id="_494b4cff" data-name="#494b4cff" transform="translate(0)">
        <path id="Path_10381" data-name="Path 10381" d="M16.395,0h.058a1,1,0,0,1,.64.327c.227.219.408.482.633.7a.546.546,0,0,0,.421.193C18.6,1.2,19.025.991,19.482,1a.8.8,0,0,1,.536.2.908.908,0,0,1,.247.466c.083.347.069.707.126,1.058a.753.753,0,0,0,.118.327.918.918,0,0,0,.315.226,8.6,8.6,0,0,1,.942.442.822.822,0,0,1,.379.5,1.062,1.062,0,0,1-.135.7c-.12.24-.277.458-.409.691a1.134,1.134,0,0,0-.139.346.626.626,0,0,0,.081.346,8.183,8.183,0,0,1,.571,1.075.771.771,0,0,1-.086.674,1.376,1.376,0,0,1-.586.424c-.232.106-.475.188-.7.306a.606.606,0,0,0-.286.251,1.392,1.392,0,0,0-.09.411,4.189,4.189,0,0,1-.151,1.03.773.773,0,0,1-.444.475,1.526,1.526,0,0,1-.881-.014,4.412,4.412,0,0,0-.787-.153.562.562,0,0,0-.408.2c-.265.259-.472.574-.763.808a.937.937,0,0,1-.47.209h-.087a.832.832,0,0,1-.435-.157,3.6,3.6,0,0,1-.613-.63,1.833,1.833,0,0,0-.408-.389.559.559,0,0,0-.357-.042c-.233.03-.459.1-.689.148a1.44,1.44,0,0,1-.859,0,.746.746,0,0,1-.406-.447c-.158-.444-.086-.929-.212-1.38A.649.649,0,0,0,12,8.72a8.49,8.49,0,0,1-.955-.451.835.835,0,0,1-.355-.44.934.934,0,0,1,.066-.638,7.446,7.446,0,0,1,.437-.761,1.349,1.349,0,0,0,.162-.371.611.611,0,0,0-.085-.382,10.191,10.191,0,0,1-.54-.984.816.816,0,0,1,0-.64,1.156,1.156,0,0,1,.6-.5,6.827,6.827,0,0,0,.9-.419.491.491,0,0,0,.2-.34c.067-.356.048-.723.129-1.077a.96.96,0,0,1,.306-.55.836.836,0,0,1,.55-.172,6.7,6.7,0,0,1,1.1.208.635.635,0,0,0,.441-.039,1.854,1.854,0,0,0,.409-.385A3.876,3.876,0,0,1,15.935.18.855.855,0,0,1,16.395,0m-.735,6.619q-.551-.548-1.1-1.1l-.677.677c.484.481.964.966,1.448,1.447a.488.488,0,0,0,.675-.009l2.868-2.877L18.2,4.08Z" transform="translate(-10.663)" fill="#fff"/>
      </g>
    </g>
  </g>
</svg>
