<svg xmlns="http://www.w3.org/2000/svg" width="16" height="16" viewBox="0 0 16 16">
  <g id="Sale_order_icon" data-name="Sale order icon" opacity="0.9">
    <rect id="Rectangle_4196" data-name="Rectangle 4196" width="16" height="16" fill="none"/>
    <path id="Path_10109" data-name="Path 10109" d="M139.741,0h.037a1,1,0,0,1,.369.14l3.344,1.7-3.73,1.865q-1.866-.931-3.731-1.865l3.343-1.7A1.009,1.009,0,0,1,139.741,0Z" transform="translate(-131.761)" fill="#fff"/>
    <path id="Path_10110" data-name="Path 10110" d="M120.994,85.29l3.731,1.865q0,1.81,0,3.621-1.866-.931-3.731-1.865Q120.993,87.1,120.994,85.29Z" transform="translate(-117.207 -82.618)" fill="#fff"/>
    <path id="Path_10111" data-name="Path 10111" d="M271,87.155q1.866-.931,3.731-1.865,0,1.811,0,3.621-1.866.931-3.731,1.865Q270.995,88.965,271,87.155Z" transform="translate(-262.513 -82.618)" fill="#fff"/>
    <path id="Path_10112" data-name="Path 10112" d="M16.29,227.309c.869-.431,1.735-.869,2.6-1.3q1.816.91,3.634,1.817c.019.021.09.02.071.059l-2.666,1.332c-1.243-.618-2.481-1.245-3.725-1.859A.476.476,0,0,1,16.29,227.309Z" transform="translate(-15.706 -218.938)" fill="#fff"/>
    <path id="Path_10113" data-name="Path 10113" d="M290.21,227.865c1.239-.618,2.474-1.241,3.715-1.855.892.452,1.79.893,2.682,1.345q-1.866.931-3.73,1.864l-2.667-1.333C290.21,227.881,290.21,227.87,290.21,227.865Z" transform="translate(-281.107 -218.938)" fill="#fff"/>
    <path id="Path_10114" data-name="Path 10114" d="M0,295.24q1.864.936,3.731,1.866,0,2.437,0,4.874h0Q2,301.007.264,300.037A.493.493,0,0,1,0,299.632Z" transform="translate(0 -285.98)" fill="#fff"/>
    <path id="Path_10115" data-name="Path 10115" d="M391.993,297.106q1.865-.933,3.731-1.866v4.391a.491.491,0,0,1-.263.4c-1.154.65-2.312,1.293-3.465,1.944h0Q391.99,299.543,391.993,297.106Z" transform="translate(-379.724 -285.98)" fill="#fff"/>
    <path id="Path_10116" data-name="Path 10116" d="M151,311.689l2.8-1.4q0,2.332,0,4.663c-.931.538-1.865,1.069-2.795,1.609h0Q150.993,314.126,151,311.689Z" transform="translate(-146.272 -300.562)" fill="#fff"/>
    <path id="Path_10117" data-name="Path 10117" d="M270.991,310.29l2.8,1.4q0,2.437,0,4.874h0q-1.4-.806-2.8-1.609Q270.991,312.621,270.991,310.29Z" transform="translate(-262.513 -300.562)" fill="#fff"/>
  </g>
</svg>
