<svg id="shipped" xmlns="http://www.w3.org/2000/svg" width="29.507" height="16.531" viewBox="0 0 29.507 16.531">
  <g id="_000000ff" data-name="#000000ff" transform="translate(0 0)">
    <path id="Path_10374" data-name="Path 10374" d="M8.458,116.565a.526.526,0,0,1,.564-.468q8.262,0,16.523,0a3.121,3.121,0,0,0-.143,1.293c0,1.635,0,3.27,0,4.905a1.69,1.69,0,0,0,1,1.487q0,2.871,0,5.743H18.211a3.6,3.6,0,0,0-1.18-2.165,3.556,3.556,0,0,0-5.083.4,3.621,3.621,0,0,0-.8,1.77c-.723,0-1.447,0-2.17,0a.524.524,0,0,1-.527-.543q0-1.842,0-3.684c.53,0,1.06.006,1.59,0a.663.663,0,0,0,.632-.7.682.682,0,0,0-.7-.631c-.985,0-1.97,0-2.955,0a.849.849,0,0,1-.7-.314.821.821,0,0,1,.6-1.33c.741-.009,1.483.005,2.224-.007a.671.671,0,0,0,.629-.842.69.69,0,0,0-.625-.483c-.37-.019-.741.007-1.111-.012a.821.821,0,0,1,.043-1.637c.59-.015,1.181.007,1.77-.01a.665.665,0,0,0,.611-.634.674.674,0,0,0-.647-.689c-.455-.011-.911,0-1.367-.006.008-.479-.007-.959.008-1.437m11.359,2.1q-1.642,1.635-3.278,3.276-.9-.9-1.8-1.8a1.023,1.023,0,0,0-1.242-.121.989.989,0,0,0-.432.986,1.057,1.057,0,0,0,.357.625c.81.806,1.616,1.615,2.426,2.421a1.015,1.015,0,0,0,1.141.172,1.741,1.741,0,0,0,.45-.375q1.889-1.892,3.781-3.784a.993.993,0,0,0,.06-1.32A1.021,1.021,0,0,0,19.817,118.661Z" transform="translate(-6.142 -116.089)" fill="#fff"/>
    <path id="Path_10375" data-name="Path 10375" d="M348.515,116.661a.685.685,0,0,1,.676-.673q2.246,0,4.493,0a2.055,2.055,0,0,1,1.907,1.507q.563,2.231,1.116,4.463a.859.859,0,0,1-.009.427,2.105,2.105,0,0,1,1.119,1.843q-1.3,0-2.6,0c0,.365-.006.731,0,1.1a1.037,1.037,0,0,0,.962.976c.543.008,1.087,0,1.63,0q0,1.287,0,2.573a.522.522,0,0,1-.524.54q-.894,0-1.788,0a3.6,3.6,0,0,0-1.529-2.431,3.559,3.559,0,0,0-4.461.374c0-1.507,0-3.014,0-4.521a1.286,1.286,0,0,1-.637-.086.686.686,0,0,1-.359-.626c0-1.822,0-3.644,0-5.465m1.368.7c0,1.369,0,2.739,0,4.108,1.764,0,3.527,0,5.291,0-.3-1.2-.6-2.393-.9-3.589a.673.673,0,0,0-.637-.518C352.381,117.356,351.132,117.359,349.883,117.358Z" transform="translate(-328.309 -115.986)" fill="#fff"/>
    <path id="Path_10376" data-name="Path 10376" d="M108.917,308.237a2.592,2.592,0,1,1-2.053,1.77,2.6,2.6,0,0,1,2.053-1.77m.05,1.523a1.1,1.1,0,1,0,1.369.581A1.105,1.105,0,0,0,108.967,309.759Z" transform="translate(-100.804 -296.86)" fill="#fff"/>
    <path id="Path_10377" data-name="Path 10377" d="M365.328,308.234a2.592,2.592,0,1,1-2,1.689,2.6,2.6,0,0,1,2-1.689m.048,1.527a1.1,1.1,0,1,0,1,.114A1.105,1.105,0,0,0,365.377,309.761Z" transform="translate(-342.106 -296.854)" fill="#fff"/>
  </g>
</svg>
